<svg width="15" height="16" viewBox="0 0 15 16" fill="none" xmlns="http://www.w3.org/2000/svg">
<path fill-rule="evenodd" clip-rule="evenodd" d="M13.2391 7.09922H7.98906V1.84922C7.98906 1.61052 7.89424 1.38161 7.72546 1.21282C7.55668 1.04404 7.32776 0.949219 7.08906 0.949219C6.85037 0.949219 6.62145 1.04404 6.45267 1.21282C6.28388 1.38161 6.18906 1.61052 6.18906 1.84922V7.09922H0.939063C0.700368 7.09922 0.471449 7.19404 0.302666 7.36282C0.133884 7.53161 0.0390625 7.76052 0.0390625 7.99922C0.0390625 8.23791 0.133884 8.46683 0.302666 8.63561C0.471449 8.8044 0.700368 8.89922 0.939063 8.89922H6.18906V14.1492C6.18906 14.3879 6.28388 14.6168 6.45267 14.7856C6.62145 14.9544 6.85037 15.0492 7.08906 15.0492C7.32776 15.0492 7.55668 14.9544 7.72546 14.7856C7.89424 14.6168 7.98906 14.3879 7.98906 14.1492V8.89922H13.2391C13.4778 8.89922 13.7067 8.8044 13.8755 8.63561C14.0442 8.46683 14.1391 8.23791 14.1391 7.99922C14.1391 7.76052 14.0442 7.53161 13.8755 7.36282C13.7067 7.19404 13.4778 7.09922 13.2391 7.09922Z" fill="white"/>
</svg>
