<svg width="28" height="28" viewBox="0 0 28 28" fill="none" xmlns="http://www.w3.org/2000/svg">
  <path
    d="M25.6666 14C25.6666 20.44 20.4399 25.6667 13.9999 25.6667C7.55992 25.6667 2.33325 20.44 2.33325 14C2.33325 7.56001 7.55992 2.33334 13.9999 2.33334C20.4399 2.33334 25.6666 7.56001 25.6666 14ZM20.1133 9.80001C19.7049 9.39168 19.0399 9.39168 18.6433 9.80001L12.4249 16.0183L9.36825 12.9617C8.95992 12.5533 8.29492 12.5533 7.89825 12.9617C7.48992 13.37 7.48992 14.035 7.89825 14.4317L10.9549 17.4883L11.6549 18.1883C12.0866 18.62 12.7749 18.62 13.2066 18.1883L13.9066 17.4883L20.1249 11.27C20.5333 10.8617 20.5333 10.1967 20.1249 9.80001H20.1133Z"
    fill="current" />
</svg>