<svg width="16" height="16" viewBox="0 0 16 16" fill="none" xmlns="http://www.w3.org/2000/svg">
<path fill-rule="evenodd" clip-rule="evenodd" d="M2.15964 2.93116C1.94662 2.71814 1.94662 2.37278 2.15964 2.15976C2.37265 1.94675 2.71802 1.94675 2.93104 2.15976L8 7.22872L13.069 2.15976C13.282 1.94675 13.6273 1.94675 13.8404 2.15976C14.0534 2.37278 14.0534 2.71814 13.8404 2.93116L8.7714 8.00012L13.8402 13.069C14.0533 13.282 14.0533 13.6274 13.8402 13.8404C13.6272 14.0534 13.2819 14.0534 13.0688 13.8404L8 8.77152L2.93115 13.8404C2.71813 14.0534 2.37277 14.0534 2.15975 13.8404C1.94673 13.6274 1.94673 13.282 2.15975 13.069L7.2286 8.00012L2.15964 2.93116Z" fill="#C1C9CF"/>
</svg>
