<svg width="20" height="20" viewBox="0 0 20 20" fill="none" xmlns="http://www.w3.org/2000/svg">
<g clip-path="url(#clip0_977_3432)">
<path d="M17.2 2.8H16.3V1H14.5V2.8H5.5V1H3.7V2.8H2.8C2.32302 2.80132 1.86595 2.99139 1.52867 3.32867C1.19139 3.66595 1.00132 4.12302 1 4.6V17.2C1.00132 17.677 1.19139 18.1341 1.52867 18.4713C1.86595 18.8086 2.32302 18.9987 2.8 19H17.2C17.677 18.9987 18.1341 18.8086 18.4713 18.4713C18.8086 18.1341 18.9987 17.677 19 17.2V4.6C18.9987 4.12302 18.8086 3.66595 18.4713 3.32867C18.1341 2.99139 17.677 2.80132 17.2 2.8ZM17.2 17.2H2.8V7.3H17.2V17.2Z" fill="#C1C9CF"/>
</g>
<defs>
<clipPath id="clip0_977_3432">
<rect width="20" height="20" fill="white"/>
</clipPath>
</defs>
</svg>
