<svg width="32" height="44" viewBox="0 0 32 44" fill="none" xmlns="http://www.w3.org/2000/svg">
<g clip-path="url(#clip0_4850_79494)">
<path d="M32 16C32 7.16 24.84 0 16 0C7.16 0 0 7.16 0 16C0 24.84 6.63 31.43 15 31.95V40.28C14.4 40.63 14 41.26 14 42C14 43.1 14.9 44 16 44C17.1 44 18 43.1 18 42C18 41.26 17.6 40.62 17 40.28V31.95C25.37 31.43 32 24.5 32 16Z" fill="#FF7D05"/>
<path d="M16 31C24.2843 31 31 24.2843 31 16C31 7.71573 24.2843 1 16 1C7.71573 1 1 7.71573 1 16C1 24.2843 7.71573 31 16 31Z" fill="#FF7D05"/>
<g clip-path="url(#clip1_4850_79494)">
<path fill-rule="evenodd" clip-rule="evenodd" d="M7.75 16C7.75 11.446 11.446 7.75 16 7.75C20.554 7.75 24.25 11.446 24.25 16C24.25 20.554 20.554 24.25 16 24.25C11.446 24.25 7.75 20.554 7.75 16ZM17.1 16L17.1 11.93C17.1 11.7477 16.9523 11.6 16.77 11.6H15.23C15.0477 11.6 14.9 11.7477 14.9 11.93L14.9 16L12.3967 16C12.1027 16 11.9555 16.3555 12.1633 16.5633L15.7667 20.1667C15.8955 20.2955 16.1045 20.2955 16.2333 20.1667L19.8367 16.5633C20.0445 16.3555 19.8973 16 19.6033 16L17.1 16Z" fill="white"/>
</g>
</g>
<defs>
<clipPath id="clip0_4850_79494">
<rect width="32" height="44" fill="white"/>
</clipPath>
<clipPath id="clip1_4850_79494">
<rect width="18" height="18" fill="white" transform="translate(7 7)"/>
</clipPath>
</defs>
</svg>
