<svg width="32" height="43" viewBox="0 0 32 43" fill="none" xmlns="http://www.w3.org/2000/svg">
<path fill-rule="evenodd" clip-rule="evenodd" d="M32 16C32 24.5007 25.3707 31.4531 17 31.9693V39.2676C17.5978 39.6134 18 40.2597 18 41C18 42.1046 17.1046 43 16 43C14.8954 43 14 42.1046 14 41C14 40.2597 14.4022 39.6134 15 39.2676V31.9693C6.62927 31.4531 0 24.5007 0 16C0 7.16344 7.16344 0 16 0C24.8366 0 32 7.16344 32 16ZM31 16C31 24.2843 24.2843 31 16 31C7.71573 31 1 24.2843 1 16C1 7.71573 7.71573 1 16 1C24.2843 1 31 7.71573 31 16Z" fill="#2E78DE"/>
<path d="M31 16C31 24.2843 24.2843 31 16 31C7.71573 31 1 24.2843 1 16C1 7.71573 7.71573 1 16 1C24.2843 1 31 7.71573 31 16Z" fill="#3389FF"/>
<g clip-path="url(#clip0_2708_60419)">
<path d="M22.2911 9.38425C22.1093 8.84118 21.6002 8.45459 21.0002 8.45459H11.0002C10.4002 8.45459 9.90018 8.84118 9.70927 9.38425L7.81836 14.8978V22.2614C7.81836 22.7677 8.22745 23.1819 8.72745 23.1819H9.63654C10.1365 23.1819 10.5456 22.7677 10.5456 22.2614V21.341H21.4547V22.2614C21.4547 22.7677 21.8638 23.1819 22.3638 23.1819H23.2729C23.7729 23.1819 24.182 22.7677 24.182 22.2614V14.8978L22.2911 9.38425ZM11.0002 18.5796C10.2456 18.5796 9.63654 17.9629 9.63654 17.1989C9.63654 16.4349 10.2456 15.8182 11.0002 15.8182C11.7547 15.8182 12.3638 16.4349 12.3638 17.1989C12.3638 17.9629 11.7547 18.5796 11.0002 18.5796ZM21.0002 18.5796C20.2456 18.5796 19.6365 17.9629 19.6365 17.1989C19.6365 16.4349 20.2456 15.8182 21.0002 15.8182C21.7547 15.8182 22.3638 16.4349 22.3638 17.1989C22.3638 17.9629 21.7547 18.5796 21.0002 18.5796ZM9.63654 13.9773L11.0002 9.83527H21.0002L22.3638 13.9773H9.63654Z" fill="white"/>
</g>
<defs>
<clipPath id="clip0_2708_60419">
<rect width="18" height="18" fill="white" transform="translate(7 6)"/>
</clipPath>
</defs>
</svg>
