<svg width="24" height="24" viewBox="0 0 24 24" fill="none" xmlns="http://www.w3.org/2000/svg">
  <g clip-path="url(#clip0_1415_88144)">
    <path
      d="M22.2929 9.92159V9.6678H22.2375C21.1758 4.99173 16.9963 1.5 11.9971 1.5C6.99792 1.5 2.82125 4.99173 1.7625 9.67072C1.59333 10.4204 1.5 11.1993 1.5 12.0015C1.5 12.0335 1.5 12.0627 1.5 12.0919C1.53792 16.5463 4.34958 20.3355 8.29 21.8232C9.44208 22.2579 10.6933 22.5 12 22.5C13.3067 22.5 14.6046 22.2491 15.7771 21.797C19.6854 20.2889 22.465 16.5113 22.5 12.0773C22.5 12.051 22.5 12.0248 22.5 11.9985C22.5 11.2868 22.4271 10.5925 22.2929 9.91867V9.92159ZM11.9971 3.83366C15.6983 3.83366 18.8221 6.29567 19.8254 9.67072H4.17167C5.175 6.29567 8.29875 3.83366 12 3.83366H11.9971ZM9.45375 19.7638C6.21333 18.702 3.86542 15.6711 3.83042 12.0831C7.16125 12.5528 9.7075 15.0819 9.7075 18.1302C9.7075 18.6961 9.61708 19.2445 9.45375 19.7667V19.7638ZM13.4554 12.0044C13.4554 12.8095 12.8021 13.46 11.9971 13.46C11.1921 13.46 10.5417 12.8095 10.5387 12.0044C10.5387 11.1993 11.1921 10.5458 11.9971 10.5458C12.8021 10.5458 13.4554 11.1993 13.4554 12.0044ZM14.6221 19.7375C14.4646 19.2241 14.3771 18.6874 14.3771 18.1302C14.3771 15.1111 16.8767 12.6024 20.1637 12.0977C20.1229 15.6478 17.8188 18.6553 14.6221 19.7375Z"
      fill="current" />
  </g>
  <defs>
    <clipPath id="clip0_1415_88144">
      <rect width="24" height="24" fill="white" />
    </clipPath>
  </defs>
</svg>