<svg width="16" height="16" viewBox="0 0 16 16" fill="none" xmlns="http://www.w3.org/2000/svg">
<path fill-rule="evenodd" clip-rule="evenodd" d="M12.9999 1.33334H2.99992C2.82311 1.33334 2.65354 1.40358 2.52851 1.52861C2.40349 1.65363 2.33325 1.8232 2.33325 2.00001V14C2.33325 14.1768 2.40349 14.3464 2.52851 14.4714C2.65354 14.5964 2.82311 14.6667 2.99992 14.6667H8.66658V11.3333C8.66658 10.4147 9.41458 9.66668 10.3333 9.66668H13.6666V2.00001C13.6666 1.8232 13.5963 1.65363 13.4713 1.52861C13.3463 1.40358 13.1767 1.33334 12.9999 1.33334Z" fill="#C1C9CF"/>
<path fill-rule="evenodd" clip-rule="evenodd" d="M9.6665 11.3334V14.6667L13.6665 10.6667H10.3332C10.1564 10.6667 9.98679 10.7369 9.86177 10.8619C9.73674 10.987 9.6665 11.1565 9.6665 11.3334Z" fill="#C1C9CF"/>
</svg>
