<svg width="24" height="24" viewBox="0 0 24 24" fill="none" xmlns="http://www.w3.org/2000/svg">
  <path
    d="M21.8303 13.23C20.9503 14.92 19.7003 16.32 18.1003 17.42C16.2803 18.66 14.2503 19.29 12.0003 19.29C10.6103 19.29 9.31031 19.05 8.08031 18.58L10.6203 16.04C11.0403 16.2 11.5003 16.29 12.0003 16.29C13.0403 16.29 13.9303 15.93 14.6603 15.2C15.3903 14.47 15.7503 13.59 15.7503 12.54C15.7503 12.04 15.6603 11.59 15.5003 11.16L18.6103 8.04997C19.9603 9.07997 21.0403 10.34 21.8303 11.84C22.0603 12.28 22.0603 12.8 21.8303 13.23V13.23ZM9.34031 15.19L6.65031 17.88L4.05031 20.48C3.76031 20.77 3.28031 20.77 2.99031 20.48C2.70031 20.19 2.70031 19.71 2.99031 19.42L5.40031 17.01C4.05031 15.98 2.97031 14.72 2.18031 13.22C1.95031 12.78 1.95031 12.26 2.18031 11.83C3.06031 10.14 4.31031 8.73997 5.91031 7.63997C7.73031 6.39997 9.76031 5.76997 12.0103 5.76997C13.4003 5.76997 14.6903 6.01997 15.9203 6.48997L18.9103 3.49997C19.2003 3.20997 19.6803 3.20997 19.9703 3.49997C20.2603 3.78997 20.2603 4.26997 19.9703 4.55997L17.3703 7.15997L14.6803 9.84997L9.36031 15.17L9.34031 15.19ZM8.50031 13.91L13.3703 9.03997C12.9503 8.87997 12.4903 8.78997 11.9903 8.78997C10.9503 8.78997 10.0603 9.14997 9.33031 9.87997C8.60031 10.61 8.24031 11.49 8.24031 12.54C8.24031 13.04 8.33031 13.49 8.49031 13.92L8.50031 13.91Z"
    fill="#C1C9CF" />
</svg>