<svg width="14" height="12" viewBox="0 0 14 12" fill="none" xmlns="http://www.w3.org/2000/svg">
<path d="M10.885 0.5H3.115C1.465 0.5 0.125 1.84 0.125 3.49V8.51C0.125 10.16 1.465 11.5 3.115 11.5H10.885C12.535 11.5 13.875 10.16 13.875 8.51V3.49C13.875 1.84 12.535 0.5 10.885 0.5ZM6.995 6.77C6.925 6.77 6.855 6.75 6.795 6.7L2.455 3.56C2.235 3.4 2.185 3.1 2.345 2.88C2.435 2.75 2.585 2.68 2.745 2.68C2.845 2.68 2.945 2.71 3.035 2.77L7.005 5.65L10.975 2.77C11.055 2.71 11.155 2.68 11.265 2.68C11.425 2.68 11.565 2.76 11.665 2.88C11.825 3.1 11.775 3.4 11.555 3.56L7.215 6.71C7.155 6.75 7.085 6.78 7.015 6.78L6.995 6.77Z" fill="#C1C9CF"/>
</svg>
