<svg width="24" height="24" viewBox="0 0 24 24" fill="none" xmlns="http://www.w3.org/2000/svg">
  <path fill-rule="evenodd" clip-rule="evenodd"
    d="M3.5 5.06522C3.5 4.20077 4.20077 3.5 5.06522 3.5H10.2607V9.51817C10.2607 10.0802 10.7238 10.5319 11.2857 10.5179L12 10.5L12.714 10.5179C13.2759 10.5319 13.739 10.0802 13.739 9.51816V3.5H18.9348C19.7992 3.5 20.5 4.20077 20.5 5.06522V18.9348C20.5 19.7992 19.7992 20.5 18.9348 20.5H5.06522C4.20077 20.5 3.5 19.7992 3.5 18.9348V5.06522ZM13.8867 17.5641C13.8867 17.3431 14.0658 17.1641 14.2867 17.1641H17.7128C17.9337 17.1641 18.1128 17.3431 18.1128 17.5641V18.1728C18.1128 18.3937 17.9337 18.5728 17.7128 18.5728H14.2867C14.0658 18.5728 13.8867 18.3937 13.8867 18.1728V17.5641Z"
    fill="current" />
</svg>