<svg width="24" height="24" viewBox="0 0 24 24" fill="none" xmlns="http://www.w3.org/2000/svg">
<path d="M12.0005 19.28C9.75054 19.28 7.72055 18.66 5.90055 17.41C4.30055 16.31 3.05055 14.92 2.17055 13.22C1.94055 12.78 1.94055 12.26 2.17055 11.83C3.05055 10.14 4.30055 8.74002 5.90055 7.64002C7.72055 6.40002 9.75054 5.77002 12.0005 5.77002C14.2505 5.77002 16.2805 6.39002 18.1005 7.64002C19.7005 8.74002 20.9505 10.13 21.8305 11.83C22.0605 12.27 22.0605 12.79 21.8305 13.22C20.9505 14.91 19.7005 16.31 18.1005 17.41C16.2805 18.65 14.2505 19.28 12.0005 19.28ZM12.0005 16.28C13.0405 16.28 13.9305 15.92 14.6605 15.19C15.3905 14.46 15.7505 13.58 15.7505 12.53C15.7505 11.48 15.3905 10.6 14.6605 9.87002C13.9305 9.14002 13.0505 8.78002 12.0005 8.78002C10.9505 8.78002 10.0705 9.14002 9.34055 9.87002C8.61055 10.6 8.25055 11.48 8.25055 12.53C8.25055 13.58 8.61055 14.46 9.34055 15.19C10.0705 15.92 10.9505 16.28 12.0005 16.28Z" fill="#3389FF"/>
</svg>
