<svg width="78" height="78" viewBox="0 0 78 78" fill="none" xmlns="http://www.w3.org/2000/svg">
<path d="M46.0543 13.8364L70.3917 56.0029C73.534 61.4541 69.6221 68.252 63.3374 68.252H14.6626C8.37789 68.252 4.46595 61.4541 7.60833 56.0029L31.9457 13.8364C35.0881 8.3852 42.944 8.3852 46.0864 13.8364H46.0543ZM38.9679 57.8306C39.513 57.8306 40.0581 57.7024 40.5391 57.4138C41.0201 57.1252 41.4049 56.7404 41.6935 56.2594C41.982 55.7784 42.1103 55.2654 42.1424 54.6882C42.1424 54.111 41.982 53.5979 41.6935 53.117C41.4049 52.636 41.0201 52.2512 40.5391 51.9626C40.0581 51.674 39.5451 51.5457 38.9679 51.5457C38.3908 51.5457 37.8777 51.674 37.3967 51.9626C36.9158 52.2512 36.531 52.636 36.2424 53.117C35.9538 53.5979 35.8256 54.111 35.8256 54.6882C35.8256 55.2654 35.9538 55.7784 36.2424 56.2594C36.531 56.7404 36.9158 57.1252 37.3967 57.4138C37.8777 57.7024 38.4228 57.8306 38.9679 57.8306ZM41.8859 30.2861H36.0821L36.5951 49.3653H41.4049L41.9179 30.2861H41.8859Z" fill="#C1C9CF"/>
</svg>
