<svg width="24" height="24" viewBox="0 0 24 24" fill="none" xmlns="http://www.w3.org/2000/svg">
  <path
    d="M1.21184 16.3739L10.8419 21.0432C10.9944 21.1167 11.1348 20.9215 11.0158 20.8012L4.59614 14.3013C4.48115 14.185 4.30465 14.1556 4.1589 14.2278L1.2105 15.6946C0.929699 15.835 0.931037 16.2362 1.21317 16.3725L1.21184 16.3739Z"
    fill="current" />
  <path
    d="M15.6157 8.96343L22.7975 9.71491C22.966 9.73229 23.0663 9.53172 22.9499 9.40737L16.9502 3.03187C16.7884 2.85938 16.5009 2.94228 16.4541 3.17361L15.3616 8.61711C15.3282 8.78559 15.4459 8.94605 15.6157 8.96343Z"
    fill="current" />
  <path
    d="M13.1632 20.6113L22.8454 10.8475C22.935 10.7579 22.8802 10.6041 22.7545 10.5907L15.4216 9.82321C15.2277 9.80315 15.0499 9.93419 15.0111 10.1254L12.9078 20.4762C12.8783 20.6233 13.0575 20.7196 13.1632 20.6126V20.6113Z"
    fill="current" />
  <path
    d="M11.6859 20.0831C11.7701 20.1727 11.9199 20.1299 11.9439 20.0096L13.9737 10.0051C14.0178 9.78712 13.8641 9.57853 13.6434 9.55446L1.48347 8.25342C1.13448 8.21598 0.92722 8.63183 1.16791 8.88856L11.6872 20.0831H11.6859Z"
    fill="current" />
</svg>