<svg width="112" height="28" viewBox="0 0 112 28" fill="none" xmlns="http://www.w3.org/2000/svg">
<path d="M32.7965 13.0666H26.5937C26.5814 13.0668 26.5696 13.0711 26.5601 13.0788C26.5507 13.0865 26.5442 13.0972 26.5417 13.1091C26.5392 13.1209 26.541 13.1332 26.5466 13.144C26.5522 13.1548 26.5614 13.1633 26.5726 13.1682C26.6535 13.1984 26.7319 13.2347 26.8072 13.2768C26.9881 13.3826 27.1307 13.5416 27.2149 13.7315C27.2991 13.9214 27.3206 14.1325 27.2764 14.335L24.8342 25.6566L27.2154 25.615L27.9919 22.0245H30.8751C34.2346 22.0245 36.6838 20.317 37.2797 17.549C37.8755 14.781 36.1536 13.0666 32.7965 13.0666ZM34.8774 17.5444C34.5372 19.1248 33.261 20.042 31.1801 20.042H28.4048L29.484 15.0444H32.2592C34.3401 15.0444 35.2199 15.9617 34.8774 17.549V17.5444Z" fill="#4A5761"/>
<path d="M23.6352 25.5454C23.5916 25.529 23.5493 25.5097 23.5085 25.4876C23.0764 25.2617 22.7257 24.9099 22.5044 24.4802L19.6447 19.1406L24.848 13.8079C25.105 13.5335 25.4153 13.3127 25.7606 13.1587C25.8169 13.1402 25.7935 13.0501 25.7325 13.0501H23.4311C22.9619 13.0501 22.671 13.4128 22.2745 13.8033L18.7696 17.4239L17.0476 14.1661C16.8756 13.821 16.6365 13.5125 16.3438 13.258C16.1621 13.0818 15.9206 12.9781 15.6659 12.9669H13.2049C13.1439 12.9669 13.1205 13.0547 13.1768 13.0732C13.2209 13.09 13.2639 13.1093 13.3058 13.131C13.7374 13.3578 14.0872 13.7105 14.3075 14.1406L16.9468 19.1083L11.2507 25.0625L11.2038 25.111C10.9962 25.2811 10.7667 25.4233 10.5211 25.5338C10.4625 25.5546 10.4859 25.6424 10.5469 25.6424H12.9586C13.4278 25.6424 13.7163 25.2797 14.1152 24.8869L17.8687 20.8573L19.7643 24.4456C19.9364 24.79 20.1755 25.0977 20.4681 25.3513C20.6496 25.5281 20.891 25.6327 21.1461 25.6447H23.607C23.668 25.654 23.6915 25.5662 23.6352 25.5454Z" fill="#4A5761"/>
<path d="M9.70768 20.2223L10.1229 18.2976H3.95301L4.6568 15.0259H11.4602L11.8848 13.0666H1.75949C1.74721 13.0668 1.73538 13.0711 1.72592 13.0788C1.71647 13.0865 1.70997 13.0972 1.70751 13.1091C1.70505 13.1209 1.70677 13.1332 1.71238 13.144C1.71799 13.1548 1.72717 13.1633 1.73838 13.1682C1.81926 13.1994 1.89768 13.2365 1.97298 13.2791C2.15364 13.3851 2.29605 13.5442 2.38021 13.734C2.46436 13.9238 2.48602 14.1348 2.44218 14.3374L0 25.6589H9.57163L9.99391 23.6996H2.78468L3.53307 20.2338L9.70768 20.2223Z" fill="#4A5761"/>
<path d="M58.2335 20.2223L58.6488 18.2976H52.4788L53.1826 15.0259H59.986L60.4129 13.0666H50.2971C50.2848 13.0668 50.2729 13.0711 50.2635 13.0788C50.254 13.0865 50.2475 13.0972 50.2451 13.1091C50.2426 13.1209 50.2443 13.1332 50.2499 13.144C50.2556 13.1548 50.2647 13.1633 50.276 13.1682C50.3571 13.1989 50.4355 13.236 50.5105 13.2791C50.6915 13.3849 50.834 13.5439 50.9182 13.7338C51.0024 13.9237 51.024 14.1348 50.9797 14.3374L48.5376 25.6589H58.1209L58.5455 23.6996H51.334L52.0823 20.2338L58.2335 20.2223Z" fill="#4A5761"/>
<path d="M63.4008 16.5253C63.6072 15.5733 64.5738 14.8178 66.5444 14.8178C67.7224 14.8207 68.8735 15.1646 69.8546 15.8067L70.9948 13.9906C70.0352 13.2721 68.515 12.8746 66.9807 12.8746C63.4758 12.8746 61.4607 14.6006 61.022 16.6316C60.0132 21.308 67.9919 19.5266 67.4054 22.2415C67.2036 23.1657 66.2136 23.8773 64.2242 23.8773C62.6548 23.8773 61.1557 23.3043 60.3088 22.491C60.0971 22.1887 59.9465 21.849 59.8654 21.4906C59.8654 21.4305 59.7645 21.4351 59.7528 21.4906L59.2531 23.5377C59.2108 23.7129 59.2149 23.8959 59.2648 24.0691C59.3578 24.3598 59.5269 24.6212 59.7551 24.827C60.7357 25.4369 62.2325 25.8205 63.809 25.8205C67.3139 25.8205 69.3478 24.0945 69.7818 22.0798C70.7742 17.461 62.826 19.2032 63.4008 16.5253Z" fill="#4A5761"/>
<path d="M74.403 16.5253C74.6095 15.5733 75.576 14.8178 77.5466 14.8178C78.7246 14.8207 79.8757 15.1646 80.8568 15.8067L81.9969 13.9906C81.0374 13.2721 79.5173 12.8746 77.983 12.8746C74.4804 12.8746 72.4629 14.6006 72.0242 16.6316C71.0154 21.308 78.9941 19.5266 78.4076 22.2415C78.2058 23.1657 77.2159 23.8773 75.2265 23.8773C73.657 23.8773 72.1579 23.3043 71.311 22.491C71.0993 22.1887 70.9488 21.849 70.8676 21.4906C70.8676 21.4305 70.7691 21.4351 70.755 21.4906L70.2553 23.5377C70.2092 23.7119 70.2092 23.8949 70.2553 24.0691C70.3491 24.3594 70.5181 24.6206 70.7456 24.827C71.7286 25.4369 73.223 25.8205 74.7995 25.8205C78.3044 25.8205 80.3383 24.0945 80.7723 22.0798C81.7764 17.461 73.8259 19.2032 74.403 16.5253Z" fill="#4A5761"/>
<path d="M48.2655 25.5295C48.222 25.5131 48.1796 25.4938 48.1388 25.4717C47.7067 25.2458 47.3561 24.894 47.1348 24.4643L45.4316 21.4884C46.3208 21.1907 47.1153 20.6686 47.7356 19.9741C48.356 19.2796 48.7805 18.437 48.9669 17.5304C49.5699 14.7439 47.8526 13.0526 44.4955 13.0526H38.2881C38.2758 13.0528 38.2639 13.0572 38.2545 13.0649C38.245 13.0726 38.2385 13.0833 38.236 13.0951C38.2336 13.107 38.2353 13.1193 38.2409 13.1301C38.2465 13.1408 38.2557 13.1494 38.2669 13.1543C38.3478 13.1855 38.4262 13.2226 38.5015 13.2652C38.6819 13.3715 38.8241 13.5306 38.9083 13.7203C38.9924 13.91 39.0142 14.1209 38.9707 14.3234L36.5286 25.645H38.8957L39.6862 21.9759H42.5694C42.7102 21.9759 42.851 21.9759 42.9917 21.9759L44.3032 24.4574C44.4745 24.8023 44.7137 25.1101 45.007 25.3631C45.1947 25.536 45.4419 25.6326 45.699 25.6334H48.2491C48.2984 25.6334 48.3218 25.5503 48.2655 25.5295ZM42.8697 20.0466H40.0944L41.1759 15.0304H43.9513C46.0321 15.0304 46.9119 15.9547 46.5694 17.5304C46.2268 19.1062 44.9553 20.0466 42.8838 20.0466H42.8697Z" fill="#4A5761"/>
<g opacity="0.5">
<path d="M6.62738 9.81275C6.67197 9.86042 6.70685 9.91601 6.73017 9.97651C6.75177 10.0379 6.76192 10.1026 6.76015 10.1675C6.76242 10.232 6.7515 10.2963 6.72803 10.3565C6.7055 10.4175 6.67135 10.4738 6.62738 10.5224C6.57893 10.5673 6.52225 10.6029 6.46034 10.6273C6.39843 10.6522 6.33238 10.6657 6.26548 10.6672C6.19831 10.6682 6.13163 10.6559 6.06945 10.631C6.00726 10.6061 5.95084 10.5691 5.90357 10.5224L3.33382 8.00316V10.1717C3.33567 10.2365 3.32326 10.301 3.29742 10.3607C3.27226 10.421 3.2343 10.4754 3.18606 10.5203C3.13832 10.5681 3.08063 10.6054 3.01689 10.6294C2.95376 10.6548 2.88592 10.6669 2.81773 10.6651C2.7517 10.6659 2.68619 10.6538 2.625 10.6294C2.56347 10.6048 2.50799 10.5675 2.46225 10.5203C2.41469 10.4753 2.37745 10.4209 2.35303 10.3607C2.32753 10.3008 2.31443 10.2366 2.31449 10.1717V2.67503C2.3137 2.61031 2.32607 2.5461 2.35089 2.48611C2.37661 2.42661 2.41368 2.37245 2.46011 2.32656C2.50606 2.27952 2.56148 2.24234 2.62286 2.21739C2.68379 2.19201 2.74939 2.17916 2.8156 2.17962C2.88379 2.17781 2.95162 2.18995 3.01475 2.21529C3.10904 2.25119 3.18989 2.31442 3.24653 2.39657C3.30316 2.47873 3.33287 2.57588 3.33168 2.67503V7.8268L5.90143 5.31811C5.9493 5.27242 6.00613 5.23671 6.06847 5.21314C6.1302 5.18768 6.19636 5.17414 6.26333 5.17327C6.32643 5.17167 6.38895 5.18536 6.44535 5.21314L6.62524 5.31391C6.66705 5.36321 6.69967 5.41936 6.72161 5.47976C6.74539 5.54077 6.75772 5.60547 6.75801 5.67078C6.75922 5.73516 6.74832 5.79919 6.72588 5.8597C6.70286 5.9205 6.66876 5.97671 6.62524 6.02556L4.68294 7.93386L6.62738 9.81275Z" fill="#4A5761"/>
<path d="M17.9379 9.81837C17.9824 9.86603 18.0172 9.92159 18.0405 9.98207C18.062 10.0435 18.0721 10.1081 18.0704 10.173C18.0746 10.2058 18.0746 10.239 18.0704 10.2717C18.0656 10.3038 18.0577 10.3355 18.0469 10.3661C18.0223 10.4269 17.986 10.4825 17.94 10.5298C17.895 10.5783 17.8385 10.615 17.7756 10.6369C17.7453 10.6491 17.7138 10.6582 17.6816 10.6641C17.6482 10.6683 17.6145 10.6683 17.5812 10.6641C17.5142 10.6651 17.4477 10.6528 17.3856 10.6279C17.3236 10.603 17.2673 10.5661 17.2201 10.5193L14.6567 8.00099V10.1688C14.6568 10.2337 14.6437 10.2979 14.6183 10.3577C14.5921 10.418 14.5536 10.4723 14.5051 10.5172C14.4447 10.5755 14.3706 10.6183 14.2893 10.6417C14.2081 10.6651 14.1222 10.6685 14.0394 10.6515C14.0071 10.6449 13.9756 10.6351 13.9454 10.6222C13.9151 10.6089 13.8858 10.5934 13.8578 10.576C13.831 10.5573 13.8059 10.5362 13.783 10.513C13.7599 10.4901 13.7385 10.4655 13.7189 10.4396C13.6823 10.3853 13.6563 10.3248 13.642 10.2612C13.6362 10.2293 13.6327 10.1971 13.6313 10.1647V2.67469C13.6313 2.60994 13.6443 2.54582 13.6696 2.48604C13.6949 2.42625 13.732 2.37199 13.7787 2.32634C13.8251 2.2784 13.8811 2.24051 13.9432 2.2151C14.0713 2.16756 14.2125 2.16756 14.3406 2.2151C14.404 2.24044 14.4614 2.2783 14.5093 2.32634C14.5561 2.37199 14.5931 2.42625 14.6184 2.48604C14.6437 2.54582 14.6567 2.60994 14.6567 2.67469V7.83309L17.2201 5.32526C17.2685 5.28031 17.325 5.24472 17.3868 5.22033C17.4483 5.19467 17.5143 5.18113 17.5812 5.18047C17.644 5.17992 17.7061 5.19355 17.7627 5.22033L17.9422 5.32106C17.9843 5.37006 18.0169 5.42627 18.0383 5.48686C18.057 5.53174 18.0685 5.57914 18.0725 5.62745C18.079 5.67551 18.079 5.72418 18.0725 5.77224C18.0658 5.82034 18.0514 5.86712 18.0298 5.91078C18.008 5.95455 17.9808 5.99541 17.9486 6.03247L16.0132 7.94013L17.9379 9.81837Z" fill="#4A5761"/>
<path d="M25.2018 9.81815C25.2463 9.86582 25.2811 9.9214 25.3044 9.98189C25.3259 10.0433 25.3361 10.108 25.3343 10.1729C25.3386 10.2057 25.3386 10.2389 25.3343 10.2716C25.3295 10.3037 25.3216 10.3354 25.3108 10.3661C25.2988 10.3962 25.2838 10.425 25.2659 10.4521C25.2489 10.4806 25.228 10.5067 25.2039 10.5298C25.181 10.553 25.156 10.574 25.1292 10.5927C25.101 10.6107 25.071 10.6256 25.0394 10.6369C25.0091 10.6491 24.9776 10.6582 24.9454 10.6641C24.9121 10.6683 24.8783 10.6683 24.845 10.6641C24.7779 10.6657 24.7112 10.6537 24.649 10.6288C24.5869 10.6038 24.5306 10.5666 24.4839 10.5193L21.9198 8.0003V10.1687C21.921 10.2336 21.9086 10.2981 21.8832 10.3581C21.8578 10.4181 21.8201 10.4723 21.7723 10.5172C21.7249 10.5653 21.6673 10.6025 21.6035 10.6264C21.5405 10.6517 21.4729 10.6638 21.4048 10.662C21.3718 10.6618 21.3389 10.6582 21.3065 10.6515C21.2742 10.6449 21.2428 10.6351 21.2125 10.6221C21.1822 10.6088 21.1529 10.5934 21.1249 10.576C21.0981 10.5573 21.073 10.5362 21.0501 10.513C21.027 10.49 21.0056 10.4654 20.986 10.4395C20.9494 10.3852 20.9233 10.3247 20.9091 10.2611C20.906 10.229 20.906 10.1967 20.9091 10.1645V2.6726C20.909 2.60774 20.9221 2.54354 20.9476 2.48369C20.9719 2.42351 21.0091 2.36912 21.0565 2.32415C21.1284 2.25494 21.2193 2.20793 21.318 2.18891C21.4167 2.16988 21.519 2.17967 21.6121 2.2171C21.6755 2.24243 21.733 2.28031 21.7809 2.32836C21.8276 2.37402 21.8647 2.4283 21.89 2.4881C21.9153 2.5479 21.9283 2.61204 21.9283 2.6768V7.83235L24.4924 5.32387C24.5408 5.2789 24.5973 5.2433 24.6591 5.21891C24.7206 5.19324 24.7867 5.1797 24.8535 5.17904C24.9165 5.17744 24.9789 5.19112 25.0352 5.21891L25.2146 5.31966C25.2568 5.36867 25.2894 5.4249 25.3108 5.4855C25.3291 5.53062 25.3413 5.57789 25.3471 5.62613C25.3546 5.67484 25.3546 5.72436 25.3471 5.77306C25.3404 5.82117 25.326 5.86797 25.3044 5.91164C25.2842 5.95577 25.2575 5.99675 25.2253 6.03336L23.283 7.93941L25.2018 9.81815Z" fill="#4A5761"/>
<path d="M30.5841 5.85114C30.3281 5.59146 30.0247 5.38321 29.6901 5.23759C29.3429 5.08658 28.9681 5.00862 28.5894 5.00862C28.2106 5.00862 27.8359 5.08658 27.4886 5.23759C26.9744 5.45756 26.5362 5.82331 26.2284 6.28956C25.9205 6.75581 25.7566 7.30202 25.7569 7.8604C25.7545 8.23633 25.8281 8.6089 25.9734 8.95578C26.1156 9.28904 26.3206 9.59192 26.5773 9.84803C26.7083 9.98016 26.8535 10.0976 27.0102 10.1981C27.321 10.4028 27.6688 10.5451 28.0341 10.6172C28.2169 10.651 28.4024 10.6676 28.5883 10.6669C28.9645 10.6724 29.3378 10.5988 29.6836 10.4508C30.0195 10.3113 30.3241 10.1063 30.5798 9.84803C30.8375 9.59222 31.0446 9.29027 31.1902 8.95794C31.3388 8.6099 31.4154 8.23549 31.4154 7.85718C31.4154 7.47887 31.3388 7.10447 31.1902 6.75642C31.0454 6.42022 30.8399 6.11335 30.5841 5.85114ZM30.4001 7.86472C30.4017 8.10612 30.3531 8.34522 30.2572 8.56688C30.1681 8.77995 30.0363 8.9726 29.8698 9.13295C29.7884 9.21359 29.6992 9.28596 29.6035 9.349C29.5073 9.41143 29.4059 9.46564 29.3005 9.51104C29.0769 9.6062 28.8357 9.65329 28.5926 9.64929C28.2326 9.65358 27.8796 9.54967 27.5795 9.35111C27.4847 9.28689 27.3956 9.21461 27.3133 9.13506C27.2329 9.05347 27.1604 8.9645 27.0968 8.86933C27.0324 8.77286 26.9766 8.67094 26.9301 8.56472C26.8338 8.34329 26.7859 8.10393 26.7894 7.86256C26.7883 7.61771 26.8369 7.37516 26.9323 7.14959C26.9539 7.09774 26.9778 7.04373 27.0059 6.98972C27.0341 6.9357 27.0643 6.88818 27.0968 6.83849C27.1293 6.7888 27.1682 6.74129 27.2029 6.69376C27.2405 6.6487 27.281 6.6061 27.3241 6.56627C27.3657 6.5226 27.4106 6.48214 27.4583 6.44527C27.5036 6.4069 27.5513 6.37153 27.6012 6.33941C27.6503 6.30568 27.7016 6.27538 27.7549 6.24869C27.8066 6.22073 27.8601 6.19617 27.9151 6.17521C27.9692 6.15128 28.0249 6.13106 28.0818 6.11471L28.2571 6.07151C28.3151 6.06041 28.3736 6.05251 28.4324 6.04777C28.5504 6.03482 28.6695 6.03482 28.7874 6.04777C28.847 6.05324 28.9063 6.06187 28.9649 6.07367C29.0212 6.08664 29.0797 6.10391 29.136 6.1212C29.1922 6.13848 29.2507 6.16009 29.3048 6.1817C29.5192 6.27163 29.7139 6.40224 29.8784 6.56627C30.0421 6.73305 30.1721 6.92959 30.2616 7.14527C30.355 7.37358 30.4021 7.61813 30.4001 7.86472Z" fill="#4A5761"/>
<path d="M36.9324 9.8122C36.977 9.85944 37.0113 9.91522 37.0329 9.97604C37.0562 10.0371 37.0671 10.102 37.065 10.1672C37.0655 10.2317 37.0539 10.2958 37.0308 10.3562C37.0091 10.4172 36.9757 10.4735 36.9324 10.5222C36.884 10.5671 36.8274 10.6028 36.7656 10.6272C36.7036 10.6519 36.6377 10.6654 36.5709 10.6671C36.5037 10.6687 36.4369 10.6566 36.3747 10.6317C36.3125 10.6068 36.2562 10.5695 36.2094 10.5222L33.6424 8.0017V10.1735C33.6422 10.2721 33.612 10.3684 33.5556 10.4501C33.4991 10.5317 33.4191 10.5949 33.3258 10.6314C33.2627 10.6567 33.1949 10.6689 33.1268 10.6671C33.0937 10.6668 33.0608 10.6633 33.0284 10.6566C32.9961 10.65 32.9645 10.6401 32.9343 10.6272C32.9037 10.6143 32.8744 10.5989 32.8466 10.581C32.819 10.5623 32.7933 10.5412 32.7696 10.518C32.7466 10.4954 32.7259 10.4708 32.7075 10.4444C32.689 10.4173 32.6732 10.3885 32.6605 10.3583C32.6473 10.3286 32.6373 10.2977 32.6305 10.2659C32.6274 10.2338 32.6274 10.2014 32.6305 10.1693V2.67301C32.6287 2.60816 32.6411 2.54371 32.6669 2.48399C32.7199 2.36389 32.818 2.26839 32.9407 2.21724C33.0017 2.19223 33.0671 2.17939 33.1332 2.17945C33.2014 2.17917 33.269 2.192 33.3322 2.21724C33.396 2.24204 33.4536 2.28001 33.5012 2.32857C33.5494 2.37343 33.5873 2.42785 33.6124 2.4882C33.6382 2.54791 33.6506 2.61237 33.6488 2.67721V7.82525L36.2158 5.3153C36.2642 5.27032 36.3208 5.23469 36.3827 5.21028C36.4443 5.1846 36.5104 5.17105 36.5773 5.17039C36.6397 5.16861 36.7015 5.18232 36.757 5.21028C36.8148 5.23969 36.8747 5.27329 36.9388 5.3111C37.0111 5.39906 37.0564 5.50542 37.0693 5.61775C37.0758 5.66585 37.0758 5.71456 37.0693 5.76266C37.0605 5.81033 37.0462 5.85688 37.0265 5.90132C37.0048 5.94512 36.9774 5.98601 36.9452 6.02311L35.0072 7.93237L36.9324 9.8122Z" fill="#4A5761"/>
<path d="M9.2859 4.17889L9.38971 4.28158C9.47498 4.36869 9.56211 4.45641 9.65109 4.54478C9.66879 4.56401 9.69032 4.57928 9.71427 4.58958C9.73823 4.59987 9.76407 4.60496 9.79011 4.60452C9.82091 4.60435 9.85128 4.59732 9.87908 4.58397C9.89735 4.57616 9.91425 4.56546 9.92914 4.55225C9.94399 4.53978 9.95707 4.52534 9.96806 4.50932C9.9787 4.49257 9.98682 4.47432 9.99216 4.45517C9.99482 4.43598 9.99482 4.41649 9.99216 4.39729C9.99363 4.37028 9.98925 4.34327 9.97933 4.31813C9.9694 4.29299 9.95418 4.27031 9.93469 4.25168L9.91616 4.23491C9.78826 4.1061 9.66221 3.97728 9.5343 3.85221C9.51441 3.8345 9.49188 3.82001 9.46756 3.80928C9.44256 3.8004 9.41622 3.79596 9.38971 3.7962C9.36348 3.79632 9.33758 3.80206 9.31371 3.81301C9.28878 3.82257 9.26606 3.83718 9.24697 3.85595C9.22844 3.87492 9.21338 3.89705 9.20249 3.9213C9.19322 3.94585 9.1876 3.97162 9.18581 3.99782C9.18546 4.02453 9.18986 4.05107 9.19879 4.07621C9.20693 4.10112 9.22019 4.12404 9.23771 4.14344C9.25518 4.15319 9.27137 4.16509 9.2859 4.17889Z" fill="#4A5761"/>
<path d="M11.7429 4.58949C11.7613 4.59661 11.7806 4.60098 11.8003 4.60245C11.82 4.60525 11.8399 4.60525 11.8596 4.60245C11.879 4.59868 11.8978 4.5918 11.9151 4.58209C11.9327 4.57187 11.9489 4.55945 11.9633 4.54511L12.0484 4.46006L12.1725 4.33619L12.3576 4.15128C12.373 4.13778 12.3855 4.12145 12.3947 4.1032C12.404 4.08553 12.4114 4.06693 12.4169 4.04772C12.4196 4.02748 12.4196 4.00693 12.4169 3.98669C12.4148 3.96636 12.4098 3.94647 12.4021 3.92755C12.3951 3.90881 12.3851 3.89132 12.3724 3.87577C12.3607 3.85937 12.3463 3.84501 12.3299 3.83325C12.3133 3.82206 12.2952 3.81331 12.2762 3.80733C12.2572 3.80011 12.2372 3.79634 12.2169 3.79623C12.1892 3.79572 12.1616 3.80011 12.1354 3.80918C12.1097 3.81998 12.0859 3.83497 12.0651 3.85356C11.9336 3.98669 11.8003 4.118 11.6688 4.24929C11.6479 4.27077 11.6321 4.29666 11.6226 4.32508C11.6066 4.37184 11.6066 4.42256 11.6226 4.46932C11.6281 4.48777 11.6376 4.50481 11.6503 4.51925C11.6615 4.53502 11.6753 4.54877 11.6911 4.55992C11.7068 4.57232 11.7242 4.58227 11.7429 4.58949Z" fill="#4A5761"/>
<path d="M10.8108 3.49031V3.92179C10.809 3.94648 10.809 3.97129 10.8108 3.99598C10.8154 4.02475 10.824 4.05226 10.8361 4.07719C10.8482 4.10195 10.8635 4.12391 10.8813 4.14215C10.8981 4.16091 10.9178 4.1751 10.9391 4.18388C10.9607 4.19286 10.9832 4.19833 11.0059 4.20014H11.0294C11.0541 4.19575 11.078 4.1855 11.0998 4.16995C11.1218 4.15453 11.1413 4.13409 11.1576 4.10964C11.174 4.08576 11.1868 4.05828 11.1955 4.02849C11.2026 3.9984 11.2063 3.96711 11.2064 3.93567V3.26067C11.2078 3.1903 11.1877 3.122 11.1504 3.07044C11.1313 3.04499 11.1086 3.02451 11.0835 3.01013C11.0584 2.99635 11.0314 2.98928 11.0041 2.98929C10.9903 2.98703 10.9763 2.98703 10.9625 2.98929C10.9494 2.99258 10.9367 2.998 10.9246 3.00548C10.9117 3.01167 10.8995 3.02029 10.8885 3.03102L10.8578 3.06348C10.8482 3.07623 10.8398 3.09026 10.8325 3.10527C10.825 3.12055 10.819 3.13689 10.8144 3.15397C10.8089 3.17022 10.8053 3.1874 10.8036 3.205C10.8018 3.22193 10.8018 3.23909 10.8036 3.25602C10.8108 3.33489 10.8108 3.41376 10.8108 3.49031Z" fill="#4A5761"/>
<path d="M12.7097 7.74001C12.676 7.68731 12.6385 7.63717 12.5975 7.58997C12.5547 7.5449 12.5077 7.50411 12.4571 7.46817L12.3772 7.42033C12.3805 7.37254 12.3805 7.32461 12.3772 7.27682C12.3759 7.22854 12.3701 7.18051 12.36 7.1333C12.3526 7.0848 12.3396 7.03731 12.3211 6.99191C12.3076 6.94558 12.2872 6.90162 12.2606 6.86146C12.2393 6.81823 12.2125 6.77801 12.1808 6.74184C12.1523 6.70152 12.119 6.66499 12.0814 6.6331C12.0472 6.60074 12.0096 6.57226 11.9692 6.54826C11.9296 6.52062 11.8877 6.49664 11.8439 6.47653C11.8435 6.3277 11.8059 6.18133 11.7346 6.05097C11.6633 5.92062 11.5606 5.81044 11.4359 5.73055C11.4494 5.6851 11.4588 5.63854 11.464 5.59139C11.4672 5.54433 11.4672 5.49706 11.464 5.45C11.461 5.40318 11.4545 5.35668 11.4445 5.31084C11.4341 5.26424 11.4204 5.21847 11.4035 5.17386C11.386 5.12986 11.3658 5.08699 11.3431 5.04553C11.3184 5.00524 11.291 4.96672 11.261 4.93026C11.2316 4.89412 11.1999 4.85999 11.166 4.82805C11.1308 4.79668 11.0924 4.76896 11.0516 4.74539C11.0128 4.71908 10.9715 4.69655 10.9285 4.67801C10.8864 4.65755 10.8422 4.64153 10.7968 4.63017C10.7508 4.61853 10.7038 4.61122 10.6565 4.6084C10.6106 4.60299 10.5642 4.60299 10.5183 4.6084C10.4717 4.60842 10.4253 4.61429 10.3801 4.62582C10.3345 4.63597 10.2897 4.64978 10.2463 4.66712C10.2017 4.68505 10.1584 4.70614 10.1167 4.7302C10.0762 4.7543 10.038 4.78193 10.0023 4.81282C9.93328 4.87363 9.86836 4.93905 9.80798 5.00857L9.7497 5.06942L9.55538 5.28689C9.50999 5.25872 9.46143 5.23613 9.41073 5.21952C9.36005 5.2017 9.30807 5.18785 9.25527 5.17816C9.20271 5.16752 9.14908 5.16318 9.0955 5.16515C9.04044 5.16664 8.98558 5.17242 8.93142 5.18251C8.87985 5.19342 8.8293 5.20874 8.78029 5.22823C8.7294 5.24698 8.68025 5.27023 8.63347 5.29778C8.58784 5.32599 8.54517 5.35877 8.50609 5.39563C8.46599 5.4313 8.42846 5.46983 8.39382 5.5109C8.28065 5.65321 8.15802 5.78765 8.02678 5.91325C7.84611 6.0895 7.68669 6.28658 7.55181 6.50042C7.46993 6.63347 7.40397 6.77581 7.35533 6.92448C7.1552 7.4181 7.11146 7.962 7.2301 8.48163C7.39235 9.20918 7.81806 9.84967 8.42405 10.278C8.62658 10.4127 8.84876 10.5146 9.08255 10.5802C9.31553 10.6465 9.55747 10.6752 9.79935 10.6651C9.8717 10.666 9.94398 10.6602 10.0153 10.6477C10.419 10.5955 11.2912 10.1214 11.5654 9.90175C11.6434 9.84032 11.7157 9.77186 11.7813 9.69728C11.8893 9.58637 11.9972 9.47985 12.0987 9.36024L12.2283 9.21667L12.3276 9.10793C12.4204 9.01442 12.5132 8.91223 12.6018 8.80784C12.6443 8.76055 12.6806 8.70792 12.7097 8.65127C12.7401 8.59548 12.764 8.53637 12.781 8.4751C12.7998 8.41352 12.8121 8.35007 12.8177 8.28587C12.8252 8.22304 12.8252 8.15954 12.8177 8.0967C12.8107 8.03448 12.7969 7.9732 12.7766 7.914C12.76 7.85395 12.7376 7.79568 12.7097 7.74001ZM12.2542 8.10105C12.2744 8.15671 12.2789 8.21696 12.2671 8.27504V8.28587C12.2513 8.34191 12.2224 8.39338 12.1829 8.43597C11.913 8.73174 11.6453 9.02315 11.3754 9.30587L11.3042 9.38195C11.2817 9.40526 11.2572 9.42638 11.2308 9.44503C10.8408 9.72114 10.4102 9.93393 9.95479 10.0757C9.1905 10.1779 8.16065 9.77778 7.7785 8.31635C7.66839 7.9075 7.731 7.57912 7.89292 7.07893C7.92603 6.97198 7.97247 6.86964 8.0311 6.77444C8.14003 6.59716 8.27221 6.43551 8.42405 6.29383C8.56858 6.1504 8.70551 5.99939 8.83427 5.84146C8.84759 5.82256 8.86277 5.80508 8.8796 5.78927L8.93574 5.75014C8.95428 5.73897 8.9738 5.72948 8.99404 5.72184C9.01604 5.71551 9.03839 5.71046 9.06097 5.70666C9.08316 5.70342 9.1057 5.70342 9.1279 5.70666H9.19482L9.25743 5.72837C9.27803 5.73698 9.29759 5.74796 9.31573 5.76103C9.34811 5.78495 9.38266 5.80453 9.41289 5.82628L9.39777 5.84146C9.22721 6.02414 9.05881 6.21118 8.88608 6.39386C8.76644 6.51377 8.67046 6.65544 8.60325 6.81139C8.56007 6.9223 8.51905 7.03975 8.48019 7.15284C8.47828 7.17091 8.47828 7.18914 8.48019 7.20721C8.4816 7.22686 8.48673 7.24605 8.4953 7.26376C8.50227 7.28085 8.51253 7.29637 8.52552 7.30942C8.54088 7.32082 8.55756 7.33034 8.57518 7.33772C8.59448 7.34104 8.61418 7.34104 8.63347 7.33772C8.65203 7.33625 8.67025 7.33184 8.68744 7.32465C8.70428 7.31463 8.71897 7.30134 8.73063 7.28552C8.74323 7.27175 8.7528 7.25545 8.7587 7.23769C8.77597 7.18549 8.7954 7.13325 8.81051 7.08106C8.8615 6.90402 8.95322 6.74161 9.07823 6.60698C9.26606 6.40908 9.44958 6.20465 9.6331 6.00675L9.82094 5.78927L9.92242 5.67618C10.0023 5.58484 10.0843 5.49786 10.1664 5.41087L10.229 5.34562C10.2755 5.29044 10.326 5.23884 10.3801 5.19122C10.3949 5.17525 10.4135 5.1633 10.4341 5.15644C10.4503 5.1462 10.4677 5.13813 10.4859 5.1325C10.505 5.12422 10.5256 5.11983 10.5464 5.11949C10.5872 5.11357 10.6286 5.11357 10.6694 5.11949C10.6893 5.12346 10.7082 5.13078 10.7256 5.1412C10.7454 5.1466 10.7638 5.15628 10.7795 5.1695C10.797 5.18132 10.8136 5.19438 10.8292 5.20863C10.8542 5.236 10.8753 5.26673 10.8918 5.29996C10.9067 5.33391 10.9169 5.36977 10.922 5.40652C10.9285 5.4432 10.9285 5.48075 10.922 5.51743C10.915 5.55387 10.9027 5.58904 10.8853 5.62181L10.8335 5.68054L10.1858 6.37644C10.1702 6.39154 10.1583 6.41018 10.1513 6.43081C10.1459 6.45296 10.1459 6.4761 10.1513 6.49824C10.1549 6.52508 10.1653 6.55056 10.1815 6.5722C10.1999 6.59307 10.2239 6.60815 10.2506 6.61569C10.2759 6.6233 10.303 6.6233 10.3283 6.61569C10.3539 6.60933 10.3771 6.59576 10.3952 6.57656C10.5054 6.45694 10.6111 6.33948 10.7213 6.22204L10.7493 6.1938C10.768 6.17567 10.789 6.16031 10.8119 6.14814C10.8351 6.13554 10.8598 6.126 10.8853 6.11984C10.9102 6.11072 10.9366 6.10629 10.9631 6.10678C10.9882 6.10364 11.0135 6.10364 11.0386 6.10678C11.0645 6.11427 11.0898 6.12375 11.1142 6.13508C11.1374 6.14618 11.1591 6.16004 11.179 6.17638C11.1996 6.19167 11.2178 6.21 11.2329 6.23075C11.2491 6.25236 11.2629 6.27571 11.274 6.30036C11.2865 6.32877 11.2953 6.35874 11.2999 6.3895C11.3053 6.4219 11.3053 6.45496 11.2999 6.48736C11.2956 6.52045 11.2846 6.55233 11.2675 6.58091C11.2527 6.60967 11.2338 6.63602 11.2114 6.65917C11.0516 6.8375 10.8853 7.01364 10.7234 7.18979C10.7077 7.20222 10.6958 7.21883 10.6889 7.23769C10.6804 7.2557 10.676 7.27536 10.676 7.29529C10.676 7.31522 10.6804 7.33488 10.6889 7.3529C10.6971 7.371 10.7089 7.38731 10.7234 7.40079C10.7382 7.41306 10.755 7.42261 10.7731 7.42904C10.7917 7.43129 10.8106 7.43129 10.8292 7.42904C10.8478 7.42781 10.8661 7.42338 10.8832 7.41598C10.8997 7.40633 10.9149 7.39466 10.9285 7.3812C11.0386 7.25941 11.1444 7.13765 11.2632 7.01803C11.2977 6.97874 11.3415 6.9488 11.3906 6.93101C11.4535 6.90931 11.5219 6.90931 11.5849 6.93101C11.613 6.93656 11.64 6.94688 11.6648 6.96149C11.6908 6.97534 11.7142 6.99375 11.7338 7.01586C11.7559 7.03473 11.7742 7.05756 11.7878 7.08323C11.8028 7.1084 11.8144 7.13549 11.8224 7.16373C11.8309 7.19118 11.8352 7.21975 11.8353 7.24852C11.8338 7.27846 11.8302 7.30829 11.8245 7.33772C11.8165 7.36489 11.8056 7.39111 11.7921 7.41598C11.7778 7.44186 11.7596 7.46535 11.7382 7.48558L11.1876 8.08364C11.1692 8.10038 11.1564 8.1224 11.1509 8.14671C11.1428 8.17081 11.1418 8.19674 11.1479 8.22142C11.154 8.24609 11.167 8.26845 11.1854 8.28587C11.2034 8.30538 11.2267 8.31906 11.2524 8.32506C11.2771 8.3316 11.3032 8.3316 11.3279 8.32506C11.3522 8.31735 11.3739 8.30301 11.3906 8.2837L11.7187 7.93142C11.7283 7.92073 11.7384 7.91054 11.749 7.90094C11.7604 7.89174 11.7727 7.88375 11.7857 7.87705C11.7972 7.86924 11.8095 7.86266 11.8224 7.85746L11.8612 7.84222H11.9022C11.9173 7.84114 11.9325 7.84114 11.9476 7.84222C11.9612 7.84006 11.975 7.84006 11.9886 7.84222H12.0296C12.0437 7.84756 12.0581 7.85193 12.0728 7.85528L12.1095 7.87487C12.1233 7.87908 12.1359 7.88651 12.1462 7.89659L12.1808 7.92053C12.1895 7.93324 12.1996 7.9449 12.211 7.95531L12.2326 7.98796C12.2404 7.99988 12.2476 8.01221 12.2542 8.02492V8.10105Z" fill="#4A5761"/>
</g>
<path d="M85.1289 25.7183L85.8486 23.7203H88.699L89.4187 25.7183H90.1289L87.6384 18.9903H86.9092L84.4187 25.7183H85.1289ZM86.0617 23.1349L87.2501 19.8452H87.2975L88.4859 23.1349H86.0617Z" fill="#4A5761"/>
<path d="M92.6622 25.8205C93.6045 25.8252 94.0259 25.2444 94.2342 24.8076H94.3005V25.7183H94.9349V18.9903H94.2815V21.6109H94.2342C94.0306 21.1787 93.6234 20.6026 92.6717 20.5979C91.4075 20.6026 90.5363 21.6434 90.541 23.2092C90.5363 24.7797 91.4028 25.8252 92.6622 25.8205ZM91.1944 23.1999C91.1897 22.0523 91.7342 21.1741 92.7474 21.1741C93.7418 21.1741 94.3005 22.0058 94.3005 23.1999C94.3005 24.3941 93.7323 25.249 92.7474 25.2537C91.7437 25.249 91.1897 24.3523 91.1944 23.1999Z" fill="#4A5761"/>
<path d="M96.2467 25.7183H96.9001V22.503C96.8953 21.727 97.4256 21.1787 98.1217 21.1834C98.8035 21.1787 99.2107 21.6248 99.2107 22.2892V25.7183H99.8641V22.4101C99.8641 21.6991 100.295 21.1787 101.067 21.1834C101.73 21.1787 102.179 21.5598 102.175 22.345V25.7183H102.828V22.3357C102.828 21.202 102.217 20.6072 101.266 20.6072C100.522 20.6072 99.9777 20.9604 99.741 21.5179H99.7031C99.4711 20.9464 99.0165 20.6072 98.3111 20.6072C97.6387 20.6072 97.1368 20.9232 96.9285 21.4529H96.8717V20.6723H96.2467V25.7183Z" fill="#4A5761"/>
<path d="M104.026 25.7183H104.67V20.6723H104.026V25.7183ZM103.884 19.3713C103.884 19.6175 104.097 19.8127 104.358 19.8081C104.613 19.8127 104.826 19.6175 104.831 19.3713C104.826 19.125 104.613 18.9299 104.358 18.9252C104.097 18.9299 103.884 19.125 103.884 19.3713Z" fill="#4A5761"/>
<path d="M106.522 22.5866C106.517 21.7131 107.095 21.1787 107.895 21.1834C108.671 21.1787 109.164 21.6899 109.164 22.503V25.7183H109.808V22.4565C109.808 21.2531 109.107 20.6072 108.065 20.6072C107.308 20.6072 106.796 20.9464 106.55 21.4715H106.493V20.6723H105.868V25.7183H106.522V22.5866Z" fill="#4A5761"/>
<path d="M111.498 25.7648C111.773 25.7694 112 25.5417 112 25.2723C112 24.9981 111.773 24.7751 111.498 24.7704C111.219 24.7751 110.987 24.9981 110.987 25.2723C110.987 25.5417 111.219 25.7694 111.498 25.7648Z" fill="#4A5761"/>
</svg>
