<svg width="236" height="60" viewBox="0 0 236 60" fill="none" xmlns="http://www.w3.org/2000/svg">
<path d="M70.8883 28.1048H58.2945C58.2695 28.1052 58.2455 28.114 58.2263 28.1296C58.2071 28.1453 58.1939 28.167 58.1889 28.1911C58.1839 28.2151 58.1874 28.2401 58.1988 28.262C58.2102 28.2838 58.2288 28.3012 58.2516 28.3112C58.4159 28.3725 58.5751 28.4463 58.7279 28.5317C59.0952 28.7464 59.3848 29.0693 59.5557 29.4548C59.7266 29.8403 59.7703 30.269 59.6805 30.6803L54.7221 53.6671L59.5567 53.5827L61.1333 46.2925H66.9873C73.8082 46.2925 78.7809 42.8258 79.9908 37.2057C81.2006 31.5857 77.7045 28.1048 70.8883 28.1048ZM75.1133 37.1963C74.4226 40.4051 71.8314 42.2675 67.6065 42.2675H61.9717L64.1627 32.1205H69.7975C74.0225 32.1205 75.8087 33.9829 75.1133 37.2057V37.1963Z" fill="#A2ABB0"/>
<path d="M52.2875 53.4413C52.1991 53.408 52.1132 53.3689 52.0303 53.324C51.153 52.8654 50.441 52.151 49.9917 51.2787L44.1854 40.4373L54.7501 29.6101C55.2718 29.0528 55.9019 28.6046 56.603 28.2918C56.7173 28.2543 56.6697 28.0713 56.5458 28.0713H51.8731C50.9205 28.0713 50.3299 28.8079 49.5249 29.6007L42.4086 36.9518L38.9125 30.3372C38.5632 29.6365 38.0777 29.0101 37.4835 28.4936C37.1145 28.1358 36.6242 27.9253 36.1069 27.9025H31.1104C30.9865 27.9025 30.9389 28.0807 31.0532 28.1183C31.1427 28.1524 31.2302 28.1916 31.3152 28.2355C32.1914 28.6962 32.9018 29.4122 33.3491 30.2856L38.7077 40.3717L27.1426 52.4608L27.0473 52.5594C26.6259 52.9047 26.1599 53.1934 25.6613 53.4179C25.5422 53.4601 25.5898 53.6383 25.7137 53.6383H30.6103C31.5629 53.6383 32.1487 52.9018 32.9585 52.1043L40.5796 43.9229L44.4282 51.2083C44.7776 51.9076 45.2631 52.5324 45.8572 53.0472C46.2257 53.4063 46.716 53.6185 47.2338 53.643H52.2303C52.3542 53.6618 52.4018 53.4835 52.2875 53.4413Z" fill="#A2ABB0"/>
<path d="M24.0098 42.6334L24.8529 38.7257H12.3258L13.7547 32.0829H27.568L28.4301 28.1048H7.87214C7.8472 28.1052 7.82318 28.114 7.80399 28.1296C7.7848 28.1453 7.7716 28.167 7.76661 28.1911C7.76161 28.2151 7.76509 28.2401 7.77649 28.262C7.78789 28.2838 7.80651 28.3012 7.82929 28.3112C7.9935 28.3745 8.15271 28.4498 8.30561 28.5364C8.6724 28.7516 8.96156 29.0746 9.13242 29.4599C9.30328 29.8453 9.34727 30.2737 9.25824 30.685L4.29974 53.6718H23.7336L24.591 49.6937H9.95365L11.4731 42.6569L24.0098 42.6334Z" fill="#A2ABB0"/>
<path d="M122.535 42.6334L123.378 38.7257H110.851L112.28 32.0829H126.093L126.96 28.1048H106.421C106.396 28.1052 106.372 28.114 106.353 28.1296C106.334 28.1453 106.321 28.167 106.316 28.1911C106.311 28.2151 106.314 28.2401 106.326 28.262C106.337 28.2838 106.356 28.3012 106.378 28.3112C106.543 28.3734 106.702 28.4487 106.855 28.5364C107.222 28.7511 107.511 29.074 107.682 29.4595C107.853 29.845 107.897 30.2737 107.807 30.685L102.849 53.6718H122.306L123.169 49.6937H108.527L110.046 42.6569L122.535 42.6334Z" fill="#A2ABB0"/>
<path d="M133.026 35.1272C133.445 33.1945 135.407 31.6604 139.408 31.6604C141.8 31.6663 144.137 32.3646 146.129 33.6683L148.444 29.981C146.496 28.522 143.409 27.7151 140.294 27.7151C133.178 27.7151 129.087 31.2195 128.196 35.343C126.148 44.838 142.347 41.2211 141.156 46.7332C140.747 48.6097 138.737 50.0546 134.698 50.0546C131.511 50.0546 128.467 48.8912 126.748 47.2399C126.318 46.626 126.012 45.9364 125.847 45.2086C125.847 45.0866 125.643 45.096 125.619 45.2086L124.604 49.365C124.519 49.7207 124.527 50.0922 124.628 50.444C124.817 51.0342 125.16 51.5649 125.624 51.9827V51.9827C127.615 53.2212 130.654 53.9999 133.854 53.9999C140.971 53.9999 145.1 50.4956 145.981 46.4049C147.996 37.0272 131.859 40.5643 133.026 35.1272Z" fill="#A2ABB0"/>
<path d="M155.365 35.1272C155.784 33.1945 157.746 31.6604 161.747 31.6604C164.139 31.6663 166.476 32.3646 168.468 33.6683L170.783 29.981C168.835 28.522 165.748 27.7151 162.633 27.7151C155.522 27.7151 151.425 31.2195 150.535 35.343C148.487 44.838 164.686 41.2211 163.495 46.7332C163.086 48.6097 161.076 50.0546 157.037 50.0546C153.85 50.0546 150.806 48.8912 149.087 47.2399C148.657 46.626 148.351 45.9364 148.187 45.2086C148.187 45.0866 147.986 45.096 147.958 45.2086L146.943 49.365C146.85 49.7187 146.85 50.0902 146.943 50.444C147.134 51.0333 147.477 51.5636 147.939 51.9827V51.9827C149.935 53.2212 152.969 53.9999 156.17 53.9999C163.286 53.9999 167.416 50.4956 168.297 46.4049C170.335 37.0272 154.193 40.5643 155.365 35.1272Z" fill="#A2ABB0"/>
<path d="M102.296 53.409C102.208 53.3757 102.122 53.3365 102.039 53.2917C101.162 52.833 100.45 52.1187 100 51.2463L96.5424 45.2041C98.3479 44.5998 99.9609 43.5397 101.22 42.1297C102.48 40.7196 103.342 39.0088 103.72 37.1681C104.945 31.5105 101.458 28.0765 94.6419 28.0765H82.0384C82.0135 28.0769 81.9894 28.0857 81.9702 28.1014C81.951 28.1171 81.9379 28.1387 81.9329 28.1628C81.9279 28.1869 81.9313 28.2119 81.9427 28.2337C81.9541 28.2556 81.9728 28.2729 81.9955 28.283C82.1597 28.3463 82.319 28.4216 82.4719 28.5081C82.8381 28.7239 83.1269 29.0469 83.2977 29.4321C83.4685 29.8173 83.5128 30.2455 83.4245 30.6567L78.466 53.6435H83.2721L84.8773 46.1939H90.7312C91.017 46.1939 91.3028 46.1939 91.5886 46.1939L94.2513 51.2323C94.5991 51.9325 95.0848 52.5576 95.6802 53.0712C96.0615 53.4223 96.5634 53.6184 97.0854 53.6201H102.263C102.363 53.6201 102.411 53.4512 102.296 53.409ZM91.3409 42.2768H85.7061L87.9019 32.0922H93.5368C97.7618 32.0922 99.5479 33.9687 98.8525 37.1681C98.1571 40.3675 95.5754 42.2768 91.3695 42.2768H91.3409Z" fill="#A2ABB0"/>
<g opacity="0.5">
<path d="M17.7555 21.4984C17.846 21.5952 17.9169 21.708 17.9642 21.8309C18.008 21.9555 18.0287 22.0869 18.0251 22.2187C18.0297 22.3496 18.0075 22.4801 17.9598 22.6024C17.9141 22.7263 17.8448 22.8406 17.7555 22.9391C17.6571 23.0304 17.5421 23.1027 17.4164 23.1522C17.2906 23.2028 17.1565 23.2302 17.0207 23.2332C16.8843 23.2352 16.749 23.2102 16.6227 23.1596C16.4964 23.1091 16.3819 23.0341 16.2859 22.9391L11.0684 17.8242V22.2272C11.0721 22.3588 11.0469 22.4897 10.9945 22.6109C10.9434 22.7334 10.8663 22.8438 10.7684 22.9348C10.6715 23.0321 10.5543 23.1077 10.4249 23.1565C10.2967 23.208 10.159 23.2326 10.0205 23.2289C9.88647 23.2305 9.75346 23.2059 9.62923 23.1565C9.5043 23.1064 9.39166 23.0309 9.29878 22.9348C9.20222 22.8436 9.12662 22.7331 9.07704 22.6109C9.02526 22.4894 8.99866 22.3589 8.99878 22.2272V7.00623C8.99717 6.87481 9.02229 6.74444 9.07268 6.62265C9.12491 6.50183 9.20017 6.39188 9.29443 6.29871C9.38773 6.20319 9.50026 6.1277 9.62488 6.07705C9.74859 6.02551 9.88178 5.99943 10.0162 6.00036C10.1547 5.99668 10.2924 6.02132 10.4206 6.07279C10.612 6.14567 10.7762 6.27405 10.8911 6.44086C11.0061 6.60766 11.0665 6.80492 11.064 7.00623V17.4662L16.2816 12.3726C16.3788 12.2799 16.4941 12.2074 16.6207 12.1595C16.746 12.1078 16.8804 12.0803 17.0164 12.0785C17.1445 12.0753 17.2714 12.1031 17.3859 12.1595L17.7512 12.3641C17.836 12.4642 17.9023 12.5782 17.9468 12.7008C17.9951 12.8247 18.0201 12.9561 18.0207 13.0887C18.0232 13.2194 18.0011 13.3494 17.9555 13.4722C17.9087 13.5957 17.8395 13.7098 17.7512 13.809L13.8076 17.6835L17.7555 21.4984Z" fill="#A2ABB0"/>
<path d="M40.7207 21.5098C40.811 21.6065 40.8817 21.7194 40.9289 21.8422C40.9726 21.9668 40.9932 22.0981 40.9896 22.2299C40.9983 22.2963 40.9983 22.3637 40.9896 22.4302C40.9799 22.4955 40.9639 22.5596 40.9419 22.6219C40.892 22.7454 40.8183 22.8582 40.725 22.9543C40.6336 23.0526 40.5189 23.1273 40.3911 23.1716C40.3296 23.1965 40.2656 23.215 40.2002 23.227C40.1326 23.2354 40.0641 23.2354 39.9964 23.227C39.8603 23.2289 39.7253 23.2039 39.5994 23.1534C39.4734 23.1029 39.3591 23.0279 39.2634 22.933L34.0587 17.8198V22.2213C34.0588 22.353 34.0323 22.4834 33.9806 22.6049C33.9276 22.7273 33.8493 22.8375 33.7508 22.9287C33.6281 23.047 33.4777 23.1338 33.3128 23.1814C33.1478 23.229 32.9735 23.2358 32.8052 23.2014C32.7397 23.188 32.6758 23.168 32.6144 23.1418C32.5529 23.1148 32.4935 23.0834 32.4366 23.048C32.3821 23.0101 32.3313 22.9673 32.2848 22.9202C32.2379 22.8735 32.1944 22.8237 32.1547 22.771C32.0804 22.6608 32.0274 22.538 31.9985 22.4089C31.9868 22.3441 31.9795 22.2786 31.9768 22.2129V7.00552C31.9768 6.87406 32.0032 6.74389 32.0546 6.6225C32.1059 6.50111 32.1812 6.39094 32.2761 6.29824C32.3702 6.20093 32.4839 6.12399 32.6101 6.0724C32.87 5.97587 33.1569 5.97587 33.4168 6.0724C33.5455 6.12384 33.6622 6.20071 33.7594 6.29824C33.8543 6.39094 33.9296 6.50111 33.981 6.6225C34.0323 6.74389 34.0587 6.87406 34.0587 7.00552V17.479L39.2634 12.3871C39.3615 12.2959 39.4763 12.2236 39.6017 12.1741C39.7266 12.122 39.8607 12.0945 39.9964 12.0932C40.124 12.0921 40.2501 12.1197 40.3651 12.1741L40.7294 12.3786C40.8149 12.4781 40.8811 12.5922 40.9245 12.7152C40.9624 12.8064 40.9858 12.9026 40.9939 13.0007C41.0071 13.0983 41.0071 13.1971 40.9939 13.2947C40.9803 13.3923 40.9511 13.4873 40.9072 13.576C40.8631 13.6648 40.8077 13.7478 40.7424 13.823L36.8129 17.6963L40.7207 21.5098Z" fill="#A2ABB0"/>
<path d="M55.4684 21.5093C55.5587 21.6061 55.6294 21.719 55.6767 21.8418C55.7204 21.9664 55.741 22.0978 55.7374 22.2296C55.7461 22.2961 55.7461 22.3635 55.7374 22.43C55.7277 22.4953 55.7117 22.5595 55.6897 22.6218C55.6654 22.6829 55.6349 22.7414 55.5986 22.7965C55.564 22.8543 55.5217 22.9074 55.4727 22.9542C55.4262 23.0013 55.3754 23.044 55.3209 23.082C55.2638 23.1186 55.2027 23.1487 55.1387 23.1716C55.0772 23.1965 55.0132 23.215 54.9478 23.227C54.8801 23.2354 54.8116 23.2354 54.7439 23.227C54.6077 23.2302 54.4722 23.2058 54.3461 23.1552C54.2199 23.1046 54.1057 23.0289 54.0107 22.9329L48.8047 17.8184V22.2211C48.8072 22.3529 48.782 22.4839 48.7305 22.6056C48.6789 22.7274 48.6023 22.8374 48.5054 22.9286C48.409 23.0263 48.292 23.1019 48.1626 23.1503C48.0347 23.2017 47.8974 23.2264 47.7592 23.2227C47.6921 23.2222 47.6252 23.215 47.5596 23.2014C47.4941 23.188 47.4301 23.168 47.3687 23.1417C47.3072 23.1147 47.2478 23.0834 47.1908 23.048C47.1364 23.01 47.0855 22.9672 47.039 22.9201C46.9921 22.8734 46.9486 22.8236 46.9088 22.7709C46.8345 22.6606 46.7816 22.5378 46.7527 22.4087C46.7463 22.3435 46.7463 22.2778 46.7527 22.2126V7.00128C46.7526 6.8696 46.7791 6.73925 46.8308 6.61774C46.8803 6.49554 46.9557 6.38511 47.052 6.29382C47.1979 6.15329 47.3824 6.05785 47.5829 6.01922C47.7834 5.98059 47.9909 6.00046 48.18 6.07645C48.3088 6.12789 48.4255 6.20479 48.5228 6.30235C48.6177 6.39507 48.693 6.50526 48.7443 6.62668C48.7957 6.74811 48.8221 6.87832 48.8221 7.00981V17.4774L54.0281 12.3843C54.1263 12.293 54.2411 12.2207 54.3665 12.1712C54.4914 12.1191 54.6256 12.0916 54.7613 12.0903C54.8891 12.087 55.0158 12.1148 55.13 12.1712L55.4945 12.3758C55.58 12.4753 55.6462 12.5894 55.6897 12.7125C55.7269 12.8041 55.7517 12.9001 55.7634 12.998C55.7787 13.0969 55.7787 13.1975 55.7634 13.2963C55.7498 13.394 55.7205 13.489 55.6767 13.5777C55.6356 13.6673 55.5816 13.7505 55.5162 13.8248L51.5726 17.6948L55.4684 21.5093Z" fill="#A2ABB0"/>
<path d="M66.3967 13.4549C65.8769 12.9276 65.2608 12.5048 64.5815 12.2092C63.8764 11.9026 63.1157 11.7443 62.3466 11.7443C61.5775 11.7443 60.8168 11.9026 60.1117 12.2092C59.0677 12.6558 58.1779 13.3984 57.5529 14.345C56.9279 15.2917 56.595 16.4007 56.5957 17.5344C56.5908 18.2977 56.7403 19.0541 57.0352 19.7584C57.324 20.4351 57.7402 21.05 58.2614 21.57C58.5274 21.8383 58.8222 22.0766 59.1404 22.2807C59.7714 22.6964 60.4776 22.9854 61.2193 23.1317C61.5904 23.2002 61.967 23.234 62.3444 23.2325C63.1083 23.2438 63.8661 23.0943 64.5683 22.7939C65.2502 22.5105 65.8687 22.0945 66.3879 21.57C66.911 21.0506 67.3315 20.4376 67.6273 19.7628C67.9289 19.0562 68.0844 18.296 68.0844 17.5279C68.0844 16.7598 67.9289 15.9996 67.6273 15.2929C67.3332 14.6103 66.916 13.9873 66.3967 13.4549V13.4549ZM66.0231 17.5432C66.0263 18.0333 65.9275 18.5188 65.733 18.9688C65.552 19.4014 65.2843 19.7926 64.9463 20.1181C64.7811 20.2819 64.6 20.4288 64.4057 20.5568C64.2103 20.6836 64.0044 20.7936 63.7904 20.8858C63.3364 21.079 62.8467 21.1746 62.3532 21.1665C61.6222 21.1752 60.9055 20.9642 60.2963 20.5611C60.1037 20.4307 59.9229 20.2839 59.7557 20.1224C59.5925 19.9568 59.4454 19.7761 59.3162 19.5829C59.1854 19.387 59.0722 19.1801 58.9778 18.9644C58.7822 18.5148 58.6849 18.0289 58.6921 17.5388C58.6897 17.0417 58.7884 16.5492 58.9822 16.0912C59.0261 15.9859 59.0745 15.8763 59.1316 15.7666C59.1888 15.6569 59.2503 15.5605 59.3162 15.4596C59.3821 15.3587 59.4612 15.2622 59.5315 15.1657C59.6079 15.0742 59.6901 14.9877 59.7777 14.9069C59.8621 14.8182 59.9532 14.736 60.0502 14.6612C60.1421 14.5833 60.239 14.5115 60.3403 14.4462C60.4399 14.3778 60.5442 14.3162 60.6523 14.262C60.7573 14.2053 60.866 14.1554 60.9775 14.1129C61.0874 14.0643 61.2005 14.0232 61.316 13.99L61.6719 13.9023C61.7896 13.8798 61.9085 13.8637 62.028 13.8541C62.2675 13.8278 62.5092 13.8278 62.7488 13.8541C62.8698 13.8652 62.99 13.8827 63.1091 13.9067C63.2234 13.933 63.3421 13.9681 63.4564 14.0032C63.5706 14.0383 63.6893 14.0822 63.7992 14.126C64.2344 14.3086 64.6299 14.5738 64.9639 14.9069C65.2961 15.2455 65.5602 15.6445 65.7418 16.0824C65.9314 16.546 66.027 17.0425 66.0231 17.5432Z" fill="#A2ABB0"/>
<path d="M79.2858 21.4973C79.3764 21.5932 79.4459 21.7064 79.4899 21.8299C79.5372 21.9538 79.5593 22.0856 79.5551 22.2179C79.556 22.349 79.5324 22.4791 79.4855 22.6018C79.4415 22.7256 79.3737 22.84 79.2858 22.9387C79.1875 23.0301 79.0725 23.1024 78.947 23.1519C78.8213 23.202 78.6874 23.2295 78.5517 23.2329C78.4153 23.2362 78.2798 23.2117 78.1535 23.1611C78.0271 23.1105 77.9128 23.0348 77.8177 22.9387L72.6058 17.8213V22.2307C72.6055 22.431 72.5441 22.6266 72.4295 22.7923C72.315 22.958 72.1525 23.0863 71.963 23.1605C71.8349 23.212 71.6973 23.2366 71.559 23.2329C71.4919 23.2324 71.425 23.2253 71.3593 23.2116C71.2936 23.1982 71.2296 23.1782 71.1681 23.1519C71.1061 23.1258 71.0466 23.0944 70.9901 23.0581C70.9342 23.0202 70.8818 22.9774 70.8337 22.9302C70.7871 22.8844 70.7449 22.8344 70.7078 22.7809C70.67 22.7259 70.638 22.6674 70.6122 22.6061C70.5855 22.5457 70.5651 22.4829 70.5514 22.4185C70.545 22.3532 70.545 22.2874 70.5514 22.2222V7.00211C70.5477 6.87045 70.5728 6.73959 70.6252 6.61835C70.7329 6.37449 70.932 6.18059 71.1812 6.07674C71.305 6.02596 71.4379 5.9999 71.5721 6.00001C71.7105 5.99944 71.8478 6.02549 71.976 6.07674C72.1056 6.12709 72.2225 6.20418 72.3191 6.30277C72.4169 6.39387 72.4939 6.50435 72.545 6.62688C72.5974 6.74813 72.6226 6.87899 72.6188 7.01065V17.463L77.8308 12.3669C77.9291 12.2756 78.044 12.2032 78.1696 12.1537C78.2946 12.1016 78.4289 12.074 78.5648 12.0727C78.6914 12.0691 78.8169 12.0969 78.9296 12.1537C79.0469 12.2134 79.1685 12.2816 79.2988 12.3584C79.4456 12.537 79.5375 12.7529 79.5638 12.981C79.5769 13.0787 79.5769 13.1776 79.5638 13.2752C79.5459 13.372 79.5167 13.4665 79.4769 13.5567C79.4326 13.6457 79.3772 13.7287 79.3118 13.804L75.3768 17.6805L79.2858 21.4973Z" fill="#A2ABB0"/>
<path d="M23.1533 10.0596L23.364 10.2681C23.5372 10.445 23.7141 10.6231 23.8947 10.8025C23.9307 10.8415 23.9744 10.8725 24.023 10.8934C24.0717 10.9143 24.1241 10.9247 24.177 10.9238C24.2395 10.9234 24.3012 10.9091 24.3576 10.882C24.3947 10.8662 24.429 10.8445 24.4593 10.8176C24.4894 10.7923 24.516 10.763 24.5383 10.7305C24.5599 10.6965 24.5764 10.6594 24.5872 10.6205C24.5926 10.5816 24.5926 10.542 24.5872 10.503C24.5902 10.4482 24.5813 10.3933 24.5612 10.3423C24.541 10.2912 24.5101 10.2452 24.4706 10.2074L24.4329 10.1733C24.1732 9.91179 23.9173 9.65025 23.6576 9.39631C23.6172 9.36034 23.5715 9.33094 23.5221 9.30914C23.4713 9.29111 23.4179 9.2821 23.364 9.28258C23.3108 9.28283 23.2582 9.29449 23.2097 9.31673C23.1591 9.33613 23.113 9.36579 23.0742 9.40389C23.0366 9.44241 23.006 9.48736 22.9839 9.53659C22.9651 9.58643 22.9537 9.63876 22.9501 9.69195C22.9493 9.74617 22.9583 9.80006 22.9764 9.85111C22.9929 9.90168 23.0199 9.94821 23.0554 9.9876C23.0909 10.0074 23.1238 10.0316 23.1533 10.0596V10.0596Z" fill="#A2ABB0"/>
<path d="M28.1421 10.8932C28.1794 10.9077 28.2187 10.9166 28.2586 10.9196C28.2985 10.9253 28.339 10.9253 28.3789 10.9196C28.4185 10.9119 28.4565 10.8979 28.4917 10.8782C28.5273 10.8575 28.5602 10.8323 28.5894 10.8032L28.7623 10.6305L29.0142 10.379L29.3902 10.0035C29.4213 9.97611 29.4468 9.94297 29.4653 9.90592C29.4842 9.87002 29.4993 9.83226 29.5105 9.79327C29.5161 9.75216 29.5161 9.71045 29.5105 9.66935C29.5062 9.62808 29.4961 9.58769 29.4804 9.54928C29.4662 9.51122 29.4458 9.4757 29.4202 9.44414C29.3963 9.41084 29.3671 9.38168 29.3338 9.3578C29.3002 9.33508 29.2635 9.31733 29.2248 9.30519C29.1863 9.29052 29.1456 9.28287 29.1045 9.28264C29.0482 9.2816 28.9922 9.29052 28.939 9.30895C28.8868 9.33086 28.8385 9.36131 28.7962 9.39905C28.5293 9.66936 28.2586 9.93596 27.9917 10.2025C27.9492 10.2461 27.917 10.2987 27.8977 10.3564C27.8653 10.4513 27.8653 10.5543 27.8977 10.6493C27.9089 10.6867 27.9282 10.7213 27.9541 10.7506C27.9768 10.7827 28.0047 10.8106 28.0368 10.8332C28.0687 10.8584 28.1042 10.8786 28.1421 10.8932V10.8932Z" fill="#A2ABB0"/>
<path d="M26.25 8.66153V9.53759C26.2462 9.58771 26.2462 9.6381 26.25 9.68822C26.2594 9.74664 26.2767 9.8025 26.3013 9.85311C26.3259 9.90338 26.3569 9.94798 26.393 9.985C26.4273 10.0231 26.4672 10.0519 26.5103 10.0697C26.5543 10.088 26.5999 10.0991 26.646 10.1027H26.6937C26.7439 10.0938 26.7924 10.073 26.8367 10.0415C26.8813 10.0101 26.9211 9.96863 26.9541 9.919C26.9873 9.87051 27.0134 9.81472 27.0311 9.75422C27.0455 9.69314 27.0529 9.6296 27.0531 9.56577V8.19528C27.056 8.0524 27.0151 7.91373 26.9394 7.80905C26.9007 7.75738 26.8547 7.71579 26.8037 7.68659C26.7527 7.65861 26.6978 7.64427 26.6424 7.64427C26.6144 7.63969 26.586 7.63969 26.558 7.64427C26.5314 7.65096 26.5055 7.66196 26.481 7.67716C26.4547 7.68972 26.43 7.70722 26.4077 7.72902L26.3453 7.7949C26.326 7.8208 26.3088 7.84929 26.294 7.87976C26.2788 7.91079 26.2665 7.94396 26.2573 7.97865C26.2461 8.01164 26.2387 8.04652 26.2353 8.08225C26.2316 8.11662 26.2316 8.15147 26.2353 8.18585C26.25 8.34598 26.25 8.50611 26.25 8.66153Z" fill="#A2ABB0"/>
<path d="M30.1048 17.2899C30.0363 17.1829 29.9601 17.0811 29.8769 16.9853C29.79 16.8938 29.6946 16.811 29.5919 16.738L29.4297 16.6409C29.4363 16.5438 29.4363 16.4465 29.4297 16.3495C29.427 16.2515 29.4152 16.154 29.3946 16.0581C29.3798 15.9596 29.3533 15.8632 29.3157 15.771C29.2884 15.677 29.247 15.5877 29.193 15.5062C29.1498 15.4184 29.0952 15.3367 29.0308 15.2633C28.9731 15.1814 28.9053 15.1073 28.8292 15.0425C28.7597 14.9768 28.6833 14.919 28.6012 14.8703C28.5209 14.8141 28.4358 14.7655 28.347 14.7246C28.346 14.4224 28.2697 14.1253 28.1249 13.8606C27.9801 13.5959 27.7716 13.3722 27.5185 13.21C27.5459 13.1177 27.5649 13.0232 27.5755 12.9275C27.582 12.8319 27.582 12.736 27.5755 12.6404C27.5694 12.5453 27.5562 12.4509 27.536 12.3579C27.5149 12.2632 27.4871 12.1703 27.4527 12.0797C27.4172 11.9904 27.3762 11.9034 27.33 11.8192C27.2799 11.7374 27.2242 11.6592 27.1634 11.5851C27.1037 11.5118 27.0393 11.4425 26.9705 11.3776C26.8989 11.3139 26.8211 11.2576 26.7382 11.2098C26.6593 11.1564 26.5757 11.1106 26.4883 11.073C26.4027 11.0314 26.3131 10.9989 26.2209 10.9758C26.1275 10.9522 26.0321 10.9374 25.936 10.9316C25.8428 10.9207 25.7486 10.9207 25.6554 10.9316C25.5608 10.9317 25.4666 10.9436 25.3749 10.967C25.2822 10.9876 25.1913 11.0157 25.1031 11.0509C25.0126 11.0873 24.9246 11.1301 24.8401 11.1789C24.7579 11.2279 24.6801 11.284 24.6078 11.3467C24.4676 11.4702 24.3358 11.603 24.2132 11.7441L24.0949 11.8677L23.7003 12.3092C23.6082 12.252 23.5096 12.2062 23.4066 12.1724C23.3038 12.1363 23.1982 12.1081 23.091 12.0885C22.9843 12.0669 22.8754 12.058 22.7666 12.062C22.6548 12.0651 22.5434 12.0768 22.4335 12.0973C22.3288 12.1194 22.2261 12.1506 22.1266 12.1901C22.0233 12.2282 21.9235 12.2754 21.8285 12.3313C21.7359 12.3886 21.6493 12.4552 21.5699 12.53C21.4885 12.6024 21.4123 12.6807 21.342 12.764C21.1122 13.053 20.8632 13.326 20.5967 13.581C20.2299 13.9388 19.9062 14.339 19.6324 14.7731C19.4661 15.0433 19.3322 15.3323 19.2334 15.6341C18.8271 16.6364 18.7383 17.7407 18.9792 18.7957C19.3086 20.2729 20.173 21.5733 21.4033 22.4429C21.8145 22.7164 22.2656 22.9234 22.7403 23.0566C23.2134 23.1912 23.7046 23.2494 24.1957 23.2289C24.3426 23.2308 24.4893 23.219 24.6341 23.1935C25.4538 23.0876 27.2248 22.125 27.7815 21.679C27.9398 21.5543 28.0865 21.4153 28.2198 21.2639C28.439 21.0387 28.6582 20.8224 28.8642 20.5796L29.1273 20.2881L29.3289 20.0673C29.5174 19.8775 29.7059 19.67 29.8856 19.458C29.9719 19.362 30.0456 19.2552 30.1048 19.1401C30.1664 19.0269 30.215 18.9068 30.2495 18.7824C30.2877 18.6574 30.3127 18.5286 30.324 18.3982C30.3393 18.2707 30.3393 18.1417 30.324 18.0142C30.3097 17.8878 30.2818 17.7634 30.2407 17.6432C30.2069 17.5213 30.1614 17.403 30.1048 17.2899V17.2899ZM29.1799 18.023C29.221 18.136 29.2301 18.2583 29.2062 18.3763V18.3982C29.1739 18.512 29.1153 18.6165 29.0352 18.703C28.4872 19.3035 27.9437 19.8952 27.3957 20.4692L27.2511 20.6237C27.2055 20.671 27.1556 20.7139 27.102 20.7517C26.3102 21.3124 25.436 21.7444 24.5113 22.0322C22.9595 22.2397 20.8685 21.4273 20.0926 18.4601C19.8691 17.63 19.9962 16.9633 20.325 15.9477C20.3922 15.7306 20.4865 15.5228 20.6055 15.3295C20.8267 14.9696 21.095 14.6413 21.4033 14.3537C21.6968 14.0625 21.9748 13.7559 22.2362 13.4352C22.2633 13.3968 22.2941 13.3613 22.3283 13.3292L22.4422 13.2498C22.4799 13.2271 22.5195 13.2078 22.5606 13.1923C22.6053 13.1795 22.6507 13.1692 22.6965 13.1615C22.7416 13.1549 22.7873 13.1549 22.8324 13.1615H22.9683L23.0954 13.2056C23.1372 13.2231 23.1769 13.2454 23.2138 13.2719C23.2795 13.3205 23.3497 13.3602 23.411 13.4044L23.3803 13.4352C23.034 13.8061 22.6921 14.1859 22.3414 14.5568C22.0985 14.8002 21.9036 15.0879 21.7672 15.4045C21.6795 15.6297 21.5962 15.8682 21.5173 16.0978C21.5134 16.1345 21.5134 16.1715 21.5173 16.2082C21.5202 16.2481 21.5306 16.287 21.548 16.323C21.5621 16.3577 21.583 16.3892 21.6094 16.4157C21.6405 16.4388 21.6744 16.4582 21.7102 16.4731C21.7494 16.4799 21.7894 16.4799 21.8285 16.4731C21.8662 16.4702 21.9032 16.4612 21.9381 16.4466C21.9723 16.4263 22.0021 16.3993 22.0258 16.3672C22.0514 16.3392 22.0708 16.3061 22.0828 16.27C22.1179 16.1641 22.1573 16.058 22.188 15.952C22.2915 15.5926 22.4777 15.2628 22.7316 14.9895C23.1129 14.5877 23.4855 14.1726 23.8581 13.7708L24.2395 13.3292L24.4456 13.0996C24.6078 12.9142 24.7743 12.7376 24.9409 12.5609L25.068 12.4285C25.1625 12.3164 25.265 12.2117 25.3749 12.115C25.405 12.0826 25.4426 12.0583 25.4845 12.0444C25.5173 12.0236 25.5526 12.0072 25.5897 11.9957C25.6285 11.979 25.6702 11.97 25.7124 11.9693C25.7953 11.9573 25.8794 11.9573 25.9623 11.9693C26.0025 11.9774 26.041 11.9923 26.0763 12.0134C26.1165 12.0244 26.1538 12.044 26.1858 12.0709C26.2213 12.0949 26.255 12.1214 26.2867 12.1503C26.3374 12.2059 26.3802 12.2683 26.4138 12.3358C26.444 12.4047 26.4647 12.4775 26.4752 12.5521C26.4883 12.6266 26.4883 12.7028 26.4752 12.7773C26.4609 12.8513 26.4358 12.9227 26.4007 12.9892L26.2954 13.1085L24.9803 14.5214C24.9486 14.5521 24.9245 14.5899 24.9102 14.6318C24.8993 14.6768 24.8993 14.7237 24.9102 14.7687C24.9176 14.8232 24.9388 14.8749 24.9716 14.9189C25.009 14.9612 25.0577 14.9919 25.1119 15.0072C25.1634 15.0226 25.2182 15.0226 25.2697 15.0072C25.3216 14.9942 25.3687 14.9667 25.4056 14.9277C25.6291 14.6849 25.8439 14.4464 26.0675 14.2079L26.1245 14.1506C26.1623 14.1138 26.2051 14.0826 26.2516 14.0579C26.2986 14.0323 26.3487 14.0129 26.4007 14.0004C26.4512 13.9819 26.5047 13.9729 26.5585 13.9739C26.6094 13.9675 26.6609 13.9675 26.7119 13.9739C26.7644 13.9891 26.8157 14.0084 26.8653 14.0313C26.9123 14.0539 26.9565 14.082 26.9968 14.1152C27.0387 14.1463 27.0756 14.1835 27.1064 14.2256C27.1393 14.2695 27.1672 14.3169 27.1897 14.3669C27.2152 14.4246 27.2329 14.4855 27.2423 14.5479C27.2533 14.6137 27.2533 14.6808 27.2423 14.7466C27.2337 14.8138 27.2113 14.8785 27.1765 14.9366C27.1466 14.9949 27.1082 15.0485 27.0626 15.0954C26.7382 15.4575 26.4007 15.8152 26.0719 16.1728C26.04 16.198 26.0158 16.2318 26.0017 16.27C25.9846 16.3066 25.9757 16.3465 25.9757 16.387C25.9757 16.4275 25.9846 16.4674 26.0017 16.504C26.0185 16.5407 26.0423 16.5738 26.0719 16.6012C26.1019 16.6261 26.136 16.6455 26.1727 16.6586C26.2106 16.6631 26.2488 16.6631 26.2867 16.6586C26.3244 16.6561 26.3615 16.6471 26.3963 16.632C26.4298 16.6124 26.4607 16.5888 26.4883 16.5614C26.7119 16.3142 26.9267 16.0669 27.1678 15.8241C27.2379 15.7443 27.3269 15.6835 27.4264 15.6474C27.5543 15.6033 27.6931 15.6033 27.8209 15.6474C27.8781 15.6587 27.9329 15.6796 27.9831 15.7093C28.036 15.7374 28.0835 15.7748 28.1234 15.8197C28.1681 15.858 28.2053 15.9043 28.233 15.9565C28.2634 16.0076 28.287 16.0625 28.3031 16.1199C28.3204 16.1756 28.3293 16.2336 28.3294 16.292C28.3265 16.3528 28.3191 16.4134 28.3075 16.4731C28.2913 16.5283 28.2692 16.5815 28.2418 16.632C28.2127 16.6846 28.1758 16.7323 28.1322 16.7734L27.0143 17.9876C26.9771 18.0216 26.9511 18.0663 26.9398 18.1157C26.9234 18.1646 26.9213 18.2173 26.9337 18.2674C26.9461 18.3175 26.9726 18.3629 27.01 18.3982C27.0463 18.4378 27.0937 18.4656 27.1459 18.4778C27.1961 18.4911 27.249 18.4911 27.2993 18.4778C27.3485 18.4621 27.3925 18.433 27.4264 18.3938L28.0927 17.6786C28.1121 17.6569 28.1326 17.6362 28.1541 17.6167C28.1772 17.598 28.2022 17.5818 28.2286 17.5682C28.252 17.5523 28.277 17.539 28.3031 17.5284L28.382 17.4975H28.4653C28.496 17.4953 28.5267 17.4953 28.5574 17.4975C28.585 17.4931 28.6131 17.4931 28.6407 17.4975H28.724C28.7526 17.5083 28.7819 17.5172 28.8116 17.524L28.8862 17.5638C28.9141 17.5723 28.9397 17.5874 28.9607 17.6078L29.0308 17.6565C29.0486 17.6823 29.0691 17.7059 29.0922 17.7271L29.136 17.7934C29.152 17.8176 29.1666 17.8426 29.1799 17.8684V18.023Z" fill="#A2ABB0"/>
</g>
<path d="M176.249 53.785L177.734 49.5835H183.616L185.101 53.785H186.567L181.427 39.6368H179.923L174.783 53.785H176.249ZM178.174 48.3524L180.626 41.4346H180.724L183.176 48.3524H178.174Z" fill="#A2ABB0"/>
<path d="M191.795 53.9999C193.739 54.0097 194.609 52.7884 195.038 51.8699H195.175V53.785H196.485V39.6368H195.136V45.1476H195.038C194.618 44.2389 193.778 43.0273 191.814 43.0175C189.205 43.0273 187.407 45.2159 187.417 48.5087C187.407 51.8113 189.196 54.0097 191.795 53.9999ZM188.766 48.4892C188.756 46.0758 189.879 44.2291 191.97 44.2291C194.022 44.2291 195.175 45.9781 195.175 48.4892C195.175 51.0003 194.003 52.7981 191.97 52.8079C189.899 52.7981 188.756 50.9124 188.766 48.4892Z" fill="#A2ABB0"/>
<path d="M199.191 53.785H200.54V47.0236C200.53 45.3918 201.624 44.2389 203.061 44.2486C204.468 44.2389 205.308 45.1769 205.308 46.5741V53.785H206.656V46.8281C206.656 45.3332 207.546 44.2389 209.138 44.2486C210.506 44.2389 211.434 45.0401 211.425 46.6913V53.785H212.773V46.6718C212.773 44.2877 211.513 43.037 209.549 43.037C208.015 43.037 206.891 43.7796 206.402 44.9521H206.324C205.845 43.7503 204.907 43.037 203.452 43.037C202.064 43.037 201.028 43.7015 200.598 44.8153H200.481V43.1738H199.191V53.785Z" fill="#A2ABB0"/>
<path d="M215.245 53.785H216.574V43.1738H215.245V53.785ZM214.952 40.438C214.952 40.9559 215.392 41.3662 215.929 41.3565C216.457 41.3662 216.897 40.9559 216.906 40.438C216.897 39.9201 216.457 39.5098 215.929 39.5C215.392 39.5098 214.952 39.9201 214.952 40.438Z" fill="#A2ABB0"/>
<path d="M220.395 47.1994C220.385 45.3625 221.577 44.2389 223.229 44.2486C224.831 44.2389 225.847 45.3137 225.847 47.0236V53.785H227.176V46.9258C227.176 44.3952 225.73 43.037 223.58 43.037C222.017 43.037 220.962 43.7503 220.454 44.8544H220.336V43.1738H219.047V53.785H220.395V47.1994Z" fill="#A2ABB0"/>
<path d="M230.665 53.8827C231.231 53.8925 231.7 53.4137 231.7 52.847C231.7 52.2705 231.231 51.8015 230.665 51.7917C230.088 51.8015 229.609 52.2705 229.609 52.847C229.609 53.4137 230.088 53.8925 230.665 53.8827Z" fill="#A2ABB0"/>
</svg>
