<svg width="24" height="24" viewBox="0 0 24 24" fill="none" xmlns="http://www.w3.org/2000/svg">
  <path fill-rule="evenodd" clip-rule="evenodd"
    d="M8.55542 2C8.00314 2 7.55542 2.44771 7.55542 3V10.5239C7.55542 11.0761 8.00313 11.5239 8.55542 11.5239H16.0793C16.6316 11.5239 17.0793 11.0761 17.0793 10.5239V3C17.0793 2.44772 16.6316 2 16.0793 2H13.08V4.58335C13.08 4.99756 12.7442 5.33335 12.33 5.33335C11.9158 5.33335 11.58 4.99756 11.58 4.58335V2H8.55542Z"
    fill="current" />
  <path fill-rule="evenodd" clip-rule="evenodd"
    d="M3 12.476C2.44772 12.476 2 12.9237 2 13.476V20.9999C2 21.5522 2.44771 21.9999 3 21.9999H10.5239C11.0761 21.9999 11.5239 21.5522 11.5239 20.9999V13.476C11.5239 12.9237 11.0761 12.476 10.5239 12.476H3ZM7.52 12.4782H6.02V15.0615C6.02 15.4757 6.35579 15.8115 6.77 15.8115C7.18421 15.8115 7.52 15.4757 7.52 15.0615V12.4782Z"
    fill="current" />
  <path fill-rule="evenodd" clip-rule="evenodd"
    d="M13.4761 12.476C12.9238 12.476 12.4761 12.9237 12.4761 13.476V20.9999C12.4761 21.5522 12.9238 21.9999 13.4761 21.9999H20.9999C21.5522 21.9999 21.9999 21.5522 21.9999 20.9999V13.476C21.9999 12.9237 21.5522 12.476 20.9999 12.476H13.4761ZM18 12.4782H16.5V15.0615C16.5 15.4757 16.8358 15.8115 17.25 15.8115C17.6642 15.8115 18 15.4757 18 15.0615V12.4782Z"
    fill="current" />
</svg>