<svg width="12" height="12" viewBox="0 0 12 12" fill="none" xmlns="http://www.w3.org/2000/svg">
<path d="M8.42833 2.44191C7.85239 1.86527 7.12229 1.46713 6.32569 1.29532C5.52909 1.12352 4.69984 1.18535 3.9375 1.47336C3.17516 1.76137 2.51212 2.26334 2.02799 2.919C1.54387 3.57466 1.25923 4.35614 1.20825 5.16963C1.15726 5.98312 1.34212 6.79407 1.74059 7.50506C2.13907 8.21606 2.73425 8.7969 3.45466 9.17788C4.17508 9.55885 4.99013 9.72377 5.80194 9.6528C6.61376 9.58184 7.38784 9.27799 8.03127 8.7778L10.052 10.8002L10.8 10.0509L8.77923 8.02851C9.40988 7.21386 9.72211 6.19729 9.65753 5.16901C9.59295 4.14073 9.15595 3.17121 8.42833 2.44191ZM7.67918 7.68412C7.23503 8.12812 6.66923 8.43042 6.05332 8.55282C5.43741 8.67523 4.79905 8.61223 4.21893 8.37179C3.63882 8.13135 3.14302 7.72428 2.79418 7.20202C2.44535 6.67976 2.25916 6.06575 2.25916 5.43767C2.25916 4.80958 2.44535 4.19561 2.79418 3.67335C3.14302 3.15109 3.63882 2.74402 4.21893 2.50358C4.79905 2.26314 5.43741 2.20014 6.05332 2.32254C6.66923 2.44494 7.23503 2.74725 7.67918 3.19125C8.27419 3.78739 8.60837 4.5953 8.60837 5.43767C8.60837 6.28003 8.27419 7.08798 7.67918 7.68412Z" fill="#A2ABB0"/>
</svg>
