<svg width="64" height="64" viewBox="0 0 64 64" fill="none" xmlns="http://www.w3.org/2000/svg">
<path d="M12.5219 13.9831C12.5219 15.0808 11.6234 15.9789 10.5252 15.9789C9.42701 15.9789 8.52848 15.0808 8.52848 13.9831C8.52848 12.8854 9.42701 11.9873 10.5252 11.9873C11.6234 11.9873 12.5219 12.8854 12.5219 13.9831ZM17.2941 11.9873C16.1959 11.9873 15.2974 12.8854 15.2974 13.9831C15.2974 15.0808 16.1959 15.9789 17.2941 15.9789C18.3923 15.9789 19.2908 15.0808 19.2908 13.9831C19.2908 12.8854 18.3923 11.9873 17.2941 11.9873ZM24.063 11.9873C22.9648 11.9873 22.0663 12.8854 22.0663 13.9831C22.0663 15.0808 22.9648 15.9789 24.063 15.9789C25.1612 15.9789 26.0597 15.0808 26.0597 13.9831C26.0597 12.8854 25.1612 11.9873 24.063 11.9873ZM51.518 6H7.39034C4.13568 6 1.5 8.63443 1.5 11.8875V48.0111C1.5 51.2642 4.13568 53.8987 7.39034 53.8987H36.9519C37.7805 53.8987 38.4494 53.2301 38.4494 52.4018H38.4394C38.4394 51.5736 37.7705 50.905 36.9419 50.905H8.2689C6.18232 50.905 4.49509 49.2186 4.49509 47.133V21.9662H54.4133V33.4419C54.4133 34.2702 55.0822 34.9388 55.9108 34.9388C56.7394 34.9388 57.4083 34.2702 57.4083 33.4419V11.8875C57.4083 8.63443 54.7727 6 51.518 6ZM54.4133 18.9726H4.49509V12.5262C4.49509 10.5703 6.08249 8.99367 8.0293 8.99367H50.7692C52.7859 8.99367 54.4133 10.6302 54.4133 12.636V18.9726ZM57.029 41.2454C53.9141 38.132 48.8524 38.132 45.7375 41.2454C42.6226 44.3589 42.6226 49.4182 45.7375 52.5316C48.5529 55.3456 52.9556 55.615 56.0705 53.3399L60.7329 58L62.5 56.2337L57.8376 51.5736C60.1139 48.4502 59.8444 44.0595 57.029 41.2454ZM55.2619 50.7753C53.1254 52.9108 49.6411 52.9108 47.4946 50.7753C45.3481 48.6398 45.3581 45.1572 47.4946 43.0117C49.6311 40.8662 53.1154 40.8762 55.2619 43.0117C57.4083 45.1472 57.3984 48.6298 55.2619 50.7753Z" fill="#D3D6D9"/>
</svg>
