<svg width="64" height="64" viewBox="0 0 64 64" fill="none" xmlns="http://www.w3.org/2000/svg">
<g clip-path="url(#clip0_1262_35323)">
<path d="M12.4853 13.9102C12.4853 15.0102 11.5853 15.9102 10.4853 15.9102C9.38531 15.9102 8.48531 15.0102 8.48531 13.9102C8.48531 12.8102 9.38531 11.9102 10.4853 11.9102C11.5853 11.9102 12.4853 12.8102 12.4853 13.9102ZM17.2653 11.9102C16.1653 11.9102 15.2653 12.8102 15.2653 13.9102C15.2653 15.0102 16.1653 15.9102 17.2653 15.9102C18.3653 15.9102 19.2653 15.0102 19.2653 13.9102C19.2653 12.8102 18.3653 11.9102 17.2653 11.9102ZM24.0453 11.9102C22.9453 11.9102 22.0453 12.8102 22.0453 13.9102C22.0453 15.0102 22.9453 15.9102 24.0453 15.9102C25.1453 15.9102 26.0453 15.0102 26.0453 13.9102C26.0453 12.8102 25.1453 11.9102 24.0453 11.9102ZM42.5653 38.0902L50.2053 58.0902L53.3453 48.8802L62.5553 45.7402L42.5553 38.1002L42.5653 38.0902ZM38.4553 52.4102C38.4553 53.2402 37.7853 53.9102 36.9553 53.9102H7.34531C4.08531 53.9102 1.44531 51.2702 1.44531 48.0102V11.8102C1.44531 8.55016 4.08531 5.91016 7.34531 5.91016H51.5453C54.8053 5.91016 57.4453 8.55016 57.4453 11.8102V33.4102C57.4453 34.2402 56.7753 34.9102 55.9453 34.9102C55.1153 34.9102 54.4453 34.2402 54.4453 33.4102V21.9102H4.44531V47.1302C4.44531 49.2202 6.13531 50.9102 8.22531 50.9102H36.9453C37.7753 50.9102 38.4453 51.5802 38.4453 52.4102H38.4553ZM4.44531 18.9102H54.4453V12.5602C54.4453 10.5502 52.8153 8.91016 50.7953 8.91016H7.98531C6.03531 8.91016 4.44531 10.4902 4.44531 12.4502V18.9102Z" fill="#D3D6D9"/>
</g>
<defs>
<clipPath id="clip0_1262_35323">
<rect width="61.11" height="52.18" fill="white" transform="translate(1.44531 5.91016)"/>
</clipPath>
</defs>
</svg>
