<svg width="56" height="56" viewBox="0 0 56 56" fill="none" xmlns="http://www.w3.org/2000/svg">
<path d="M28 0C12.53 0 0 12.53 0 28C0 43.47 12.53 56 28 56C43.47 56 56 43.47 56 28C56 12.53 43.47 0 28 0ZM28 13.58C31.325 13.58 34.02 16.275 34.02 19.6C34.02 22.925 31.325 25.62 28 25.62C24.675 25.62 21.98 22.925 22.015 19.6C22.015 16.275 24.71 13.58 28.035 13.58H28ZM13.58 38.185C13.825 32.375 20.265 27.825 28 28C35.735 27.825 42.175 32.41 42.42 38.185C42.42 43.82 13.58 43.82 13.58 38.185Z" fill="#C1C9CF"/>
</svg>
