<svg width="16" height="16" viewBox="0 0 16 16" fill="none" xmlns="http://www.w3.org/2000/svg">
<path d="M6.96646 5.24099H8.87281C9.65491 5.2407 10.3093 5.86065 10.3222 6.64251C10.3354 7.4414 9.69198 8.09309 8.89633 8.09309H6.96646C6.86673 8.09309 6.78568 8.01199 6.78568 7.91231V5.42177C6.78568 5.32209 6.86673 5.24099 6.96646 5.24099Z" fill="#C1C9CF"/>
<path fill-rule="evenodd" clip-rule="evenodd" d="M0.666748 7.99999C0.666748 3.9498 3.94989 0.666656 8.00008 0.666656C12.0503 0.666656 15.3334 3.9498 15.3334 7.99999C15.3334 12.0502 12.0503 15.3333 8.00008 15.3333C3.94989 15.3333 0.666748 12.0502 0.666748 7.99999ZM6.93781 9.54725H8.86018C10.4484 9.54696 11.7646 8.27687 11.7764 6.68886C11.7882 5.08828 10.4943 3.78712 8.89633 3.78712H5.40652C5.28211 3.78712 5.18118 3.88805 5.18118 4.01251V12.7175C5.18118 12.8419 5.28211 12.9428 5.40652 12.9428H6.56034C6.68479 12.9428 6.78568 12.8419 6.78568 12.7175V9.69938C6.78568 9.61538 6.85376 9.54725 6.93781 9.54725Z" fill="#C1C9CF"/>
</svg>
