<svg width="14" height="14" viewBox="0 0 14 14" fill="none" xmlns="http://www.w3.org/2000/svg">
<path d="M12.2768 13.2411C10.8839 13.2411 9.5 12.902 8.13393 12.2239C6.76786 11.5459 5.52679 10.6626 4.42857 9.56513C3.33036 8.47662 2.44643 7.24536 1.75893 5.86242C1.08929 4.49732 0.75 3.11438 0.75 1.73144C0.75 1.45485 0.848214 1.22288 1.03571 1.03551C1.22321 0.848144 1.45536 0.75 1.72321 0.75H4.0625C4.33036 0.75 4.55357 0.821378 4.72321 0.973055C4.89286 1.12473 5.00893 1.32994 5.0625 1.59761L5.51786 3.55157C5.5625 3.78355 5.5625 3.99768 5.51786 4.17612C5.46429 4.36349 5.375 4.51517 5.24107 4.63116L3.51786 6.255C4.10714 7.20967 4.75893 8.03944 5.45536 8.73537C6.16071 9.4313 6.94643 10.0202 7.83036 10.493L9.46429 8.82459C9.61607 8.65507 9.79464 8.53908 9.99107 8.48555C10.1875 8.42309 10.3929 8.42309 10.6161 8.48555L12.4018 8.90489C12.6696 8.96735 12.875 9.10118 13.0268 9.27962C13.1786 9.45807 13.25 9.69004 13.25 9.95771V12.2596C13.25 12.5362 13.1518 12.7682 12.9643 12.9645C12.7768 13.1519 12.5446 13.25 12.2768 13.25V13.2411Z" fill="#C1C9CF"/>
</svg>
