<svg width="20" height="20" viewBox="0 0 20 20" fill="none" xmlns="http://www.w3.org/2000/svg">
<path d="M12.5772 13.1705L16.4067 9.34104C17.1978 8.54994 17.1978 7.26178 16.4067 6.47068L13.5363 3.59332C12.7452 2.80223 11.4571 2.80223 10.666 3.59332L6.82948 7.4228L4.99525 8.03188C4.51919 8.1929 4.37217 8.79497 4.72922 9.15202L7.30554 11.7283L3.53207 15.5088C3.18902 15.8519 3 16.3139 3 16.797C3 16.909 3.09101 17 3.20303 17C3.68609 17 4.14814 16.811 4.49119 16.4679L8.26466 12.6945L10.841 15.2708C11.198 15.6278 11.8001 15.4808 11.9611 15.0048L12.5702 13.1705H12.5772Z" fill="#191F28"/>
</svg>
