<svg width="12" height="12" viewBox="0 0 12 12" fill="none" xmlns="http://www.w3.org/2000/svg">
<path d="M8.2043 4.17722L11.0918 3.76919C11.1928 3.75657 11.2644 3.65982 11.2475 3.56307L10.8392 0.677398C10.7929 0.340877 10.4815 0.109519 10.1447 0.15579C9.808 0.202062 9.5765 0.513344 9.6228 0.849865L9.77012 1.88046C9.31132 1.51449 8.7978 1.22845 8.24639 1.02654C7.62764 0.79518 6.97522 0.685811 6.33543 0.685811C5.53147 0.685811 4.73173 0.858278 3.97828 1.21163C2.62293 1.8384 1.59589 2.95733 1.08658 4.3581C0.0342811 7.24797 1.53275 10.4575 4.42025 11.5134C5.03479 11.7363 5.67879 11.8499 6.31017 11.8499C7.54346 11.8499 8.76412 11.4419 9.75328 10.6721C10.0437 10.4449 10.0606 10.0117 9.79958 9.75085C9.5765 9.52791 9.22713 9.51108 8.97879 9.70037C8.20851 10.2935 7.26566 10.609 6.31017 10.609C5.81349 10.609 5.3168 10.5206 4.84117 10.3482C2.59767 9.52791 1.43173 7.03344 2.24831 4.78716C2.64397 3.69768 3.43951 2.82693 4.4918 2.33897C5.07267 2.06555 5.69984 1.93094 6.31859 1.93094C6.81948 1.93094 7.32458 2.01928 7.80443 2.19595C8.22114 2.34318 8.60417 2.56192 8.95775 2.83534L8.02331 2.96574C7.68657 3.01201 7.45507 3.3233 7.50137 3.65982C7.54767 3.99634 7.85915 4.2277 8.19588 4.18143L8.2043 4.17722Z" fill="#87929A"/>
</svg>
