<svg width="24" height="24" viewBox="0 0 24 24" fill="none" xmlns="http://www.w3.org/2000/svg">
<rect x="0.5" y="0.5" width="23" height="23" rx="11.5" fill="#F7F8F9"/>
<path d="M12 17C11.6829 17 11.4207 16.7378 11.4207 16.4207V12.5793H7.57927C7.2622 12.5793 7 12.3171 7 12C7 11.6829 7.2622 11.4207 7.57927 11.4207H11.4207V7.57927C11.4207 7.2622 11.6829 7 12 7C12.3171 7 12.5793 7.2622 12.5793 7.57927V11.4207H16.4207C16.7378 11.4207 17 11.6829 17 12C17 12.3171 16.7378 12.5793 16.4207 12.5793H12.5793V16.4207C12.5793 16.7378 12.3171 17 12 17Z" fill="#6F7A83"/>
<rect x="0.5" y="0.5" width="23" height="23" rx="11.5" stroke="#D9DEE2"/>
</svg>
