<svg width="24" height="24" viewBox="0 0 24 24" fill="none" xmlns="http://www.w3.org/2000/svg">
  <path
    d="M20.8967 8.83339H20.7947C19.9847 4.71139 16.3517 1.60039 11.9927 1.60039C7.63373 1.60039 4.00073 4.71139 3.19073 8.83339H3.09473C2.05973 8.83339 1.21973 9.67339 1.21973 10.7084V13.7624C1.21973 14.7974 2.05973 15.6374 3.09473 15.6374H3.24773C4.28273 15.6374 5.12273 14.7974 5.12273 13.7624V10.5734C5.12273 6.78439 8.20673 3.70039 11.9957 3.70039C15.7847 3.70039 18.8687 6.78439 18.8687 10.5734V15.3784C18.8687 17.5294 17.1197 20.2784 14.9687 20.2784H13.7687C13.6247 19.4264 12.8867 18.7784 11.9957 18.7784C11.0027 18.7784 10.1957 19.5854 10.1957 20.5784C10.1957 21.5714 11.0027 22.3784 11.9957 22.3784H14.9687C18.2837 22.3784 20.9687 18.6934 20.9687 15.3784V15.6344C21.9707 15.5984 22.7747 14.7764 22.7747 13.7624V10.7114C22.7747 9.67639 21.9347 8.83639 20.8997 8.83639L20.8967 8.83339Z"
    fill="current" />
  <path
    d="M13.5 8.7961C13.5 7.9681 12.828 7.2961 12 7.2961C11.172 7.2961 10.5 7.9681 10.5 8.7961C10.5 9.6241 11.172 10.2931 12 10.2931C12.828 10.2931 13.497 9.6241 13.5 8.7961Z"
    fill="current" />
  <path
    d="M11.9998 11.0461C11.3368 11.0461 10.7998 11.5831 10.7998 12.2461V15.8461C10.7998 16.5091 11.3368 17.0461 11.9998 17.0461C12.6628 17.0461 13.1998 16.5091 13.1998 15.8461V12.2461C13.1998 11.5831 12.6628 11.0461 11.9998 11.0461Z"
    fill="current" />
</svg>