<svg width="24" height="24" viewBox="0 0 24 24" fill="none" xmlns="http://www.w3.org/2000/svg">
  <g clip-path="url(#clip0_1415_104854)">
    <path fill-rule="evenodd" clip-rule="evenodd"
      d="M19.4971 12C19.4971 12.3438 19.4763 12.6667 19.4346 12.9792L21.5284 14.625C21.7263 14.7708 21.7784 15.0312 21.6534 15.2604L19.6534 18.7188C19.5284 18.9479 19.2679 19.0312 19.0388 18.9479L16.5492 17.9479C16.0388 18.3437 15.4763 18.6771 14.8617 18.9271L14.4867 21.5729C14.4554 21.8229 14.2471 22 13.9971 22H9.9971C9.7471 22 9.54919 21.8229 9.4971 21.5729L9.1221 18.9271C8.50752 18.6771 7.95544 18.3437 7.4346 17.9479L4.94502 18.9479C4.71585 19.0208 4.45544 18.9479 4.33044 18.7188L2.33044 15.2604C2.21585 15.0521 2.26794 14.7708 2.45544 14.625L4.57002 12.9792C4.51794 12.6667 4.4971 12.3229 4.4971 12C4.4971 11.6771 4.53877 11.3333 4.59085 11.0208L2.47627 9.375C2.26794 9.22917 2.22627 8.95833 2.35127 8.73958L4.34085 5.28125C4.46585 5.05208 4.72627 4.96875 4.95544 5.05208L7.44502 6.05208C7.95544 5.66667 8.51794 5.32292 9.13252 5.07292L9.50752 2.42708C9.54919 2.17708 9.7471 2 9.9971 2H13.9971C14.2471 2 14.4554 2.17708 14.4971 2.42708L14.8721 5.07292C15.4867 5.32292 16.0388 5.65625 16.5596 6.05208L19.0492 5.05208C19.2784 4.97917 19.5388 5.05208 19.6638 5.28125L21.6638 8.73958C21.7784 8.94792 21.7263 9.22917 21.5388 9.375L19.4242 11.0208C19.4763 11.3333 19.4971 11.6667 19.4971 12ZM8.2471 12C8.2471 14.0625 9.9346 15.75 11.9971 15.75C14.0596 15.75 15.7471 14.0625 15.7471 12C15.7471 9.9375 14.0596 8.25 11.9971 8.25C9.9346 8.25 8.2471 9.9375 8.2471 12ZM11.997 14.0829C13.1476 14.0829 14.0803 13.1502 14.0803 11.9996C14.0803 10.849 13.1476 9.91626 11.997 9.91626C10.8464 9.91626 9.91366 10.849 9.91366 11.9996C9.91366 13.1502 10.8464 14.0829 11.997 14.0829Z"
      fill="current" />
  </g>
  <defs>
    <clipPath id="clip0_1415_104854">
      <rect width="24" height="24" fill="white" />
    </clipPath>
  </defs>
</svg>