<svg width="24" height="24" viewBox="0 0 24 24" fill="none" xmlns="http://www.w3.org/2000/svg">
<path d="M12 1.5V6.75C12 7.34674 12.2371 7.91903 12.659 8.34099C13.081 8.76295 13.6533 9 14.25 9H19.5V20.25C19.5 20.8467 19.2629 21.419 18.841 21.841C18.419 22.2629 17.8467 22.5 17.25 22.5H16.3725C16.5138 22.0996 16.5389 21.6674 16.445 21.2533C16.351 20.8392 16.1418 20.4602 15.8415 20.16L12.8415 17.16C13.4179 15.9552 13.6238 14.6064 13.4334 13.2845C13.2429 11.9625 12.6645 10.7268 11.7714 9.73368C10.8784 8.74057 9.71078 8.03471 8.4164 7.70546C7.12202 7.3762 5.75905 7.43833 4.5 7.884V3.75C4.5 3.15326 4.73705 2.58097 5.15901 2.15901C5.58097 1.73705 6.15326 1.5 6.75 1.5H12ZM13.5 1.875V6.75C13.5 6.94891 13.579 7.13968 13.7197 7.28033C13.8603 7.42098 14.0511 7.5 14.25 7.5H19.125L13.5 1.875ZM9.894 18.4545C8.83101 19.2494 7.5064 19.6121 6.18674 19.4697C4.86709 19.3273 3.65036 18.6903 2.78141 17.687C1.91247 16.6836 1.45582 15.3884 1.50337 14.0619C1.55092 12.7355 2.09914 11.4762 3.03769 10.5377C3.97625 9.59914 5.23547 9.05092 6.56193 9.00337C7.88839 8.95582 9.18363 9.41247 10.187 10.2814C11.1903 11.1504 11.8273 12.3671 11.9697 13.6867C12.1121 15.0064 11.7494 16.331 10.9545 17.394L14.7795 21.219C14.9203 21.3596 14.9995 21.5504 14.9997 21.7495C14.9998 21.9485 14.9209 22.1394 14.7802 22.2803C14.6396 22.4211 14.4488 22.5003 14.2498 22.5004C14.0508 22.5006 13.8598 22.4216 13.719 22.281L9.894 18.456V18.4545ZM10.5 14.25C10.5 13.2554 10.1049 12.3016 9.40165 11.5983C8.69839 10.8951 7.74456 10.5 6.75 10.5C5.75544 10.5 4.80161 10.8951 4.09835 11.5983C3.39509 12.3016 3 13.2554 3 14.25C3 15.2446 3.39509 16.1984 4.09835 16.9017C4.80161 17.6049 5.75544 18 6.75 18C7.74456 18 8.69839 17.6049 9.40165 16.9017C10.1049 16.1984 10.5 15.2446 10.5 14.25Z" fill="#C1C9CF"/>
</svg>
