<svg width="100" height="100" viewBox="0 0 100 100" fill="none" xmlns="http://www.w3.org/2000/svg">
<g clip-path="url(#clip0_4902_29011)">
<g opacity="0.53" filter="url(#filter0_f_4902_29011)">
<path d="M95.6095 51.5888C95.6095 57.3878 94.4299 63.13 92.1379 68.4876C89.8459 73.8451 86.4865 78.7131 82.2515 82.8137C78.0165 86.9142 72.9888 90.1669 67.4555 92.386C61.9222 94.6052 55.9916 95.7474 50.0024 95.7474C44.0132 95.7474 38.0826 94.6052 32.5493 92.386C27.016 90.1669 21.9883 86.9142 17.7533 82.8137C13.5183 78.7131 10.1589 73.8451 7.8669 68.4876C5.57493 63.13 4.39526 57.3878 4.39526 51.5888C4.39526 39.8772 9.20029 28.6453 17.7533 20.3639C26.3063 12.0826 37.9066 7.43018 50.0024 7.43018C55.9916 7.43018 61.9222 8.57237 67.4555 10.7915C72.9888 13.0107 78.0165 16.2634 82.2515 20.3639C86.4865 24.4644 89.8459 29.3324 92.1379 34.69C94.4299 40.0476 95.6095 45.7898 95.6095 51.5888Z" fill="black"/>
</g>
<path d="M97.3434 47.6899C97.3434 53.9413 96.1188 60.1315 93.7396 65.9071C91.3603 71.6827 87.8731 76.9305 83.4768 81.3509C79.0806 85.7714 73.8615 89.2778 68.1175 91.6702C62.3735 94.0625 56.2171 95.2938 49.9999 95.2938C37.4436 95.2938 25.4017 90.2784 16.5231 81.3509C7.64444 72.4235 2.65649 60.3152 2.65649 47.6899C2.65649 35.0645 7.64444 22.9563 16.5231 14.0288C25.4017 5.10135 37.4436 0.0859407 49.9999 0.0859375C56.2171 0.0859371 62.3735 1.31725 68.1175 3.70957C73.8615 6.1019 79.0806 9.60838 83.4768 14.0288C87.8731 18.4492 91.3603 23.697 93.7396 29.4726C96.1188 35.2482 97.3434 41.4384 97.3434 47.6899Z" fill="url(#paint0_linear_4902_29011)" stroke="#CDCDCD" stroke-width="0.351543" stroke-linecap="round" stroke-linejoin="round"/>
<path d="M93.6338 47.6896C93.6338 59.3257 89.0367 70.4851 80.8538 78.713C72.6709 86.9409 61.5725 91.5633 50.0001 91.5633C38.4277 91.5633 27.3294 86.9409 19.1465 78.713C10.9636 70.4851 6.36646 59.3257 6.36646 47.6896C6.36646 36.0536 10.9636 24.8941 19.1465 16.6662C27.3294 8.43831 38.4277 3.81592 50.0001 3.81592C61.5725 3.81592 72.6709 8.43831 80.8538 16.6662C89.0367 24.8941 93.6338 36.0536 93.6338 47.6896Z" fill="url(#paint1_radial_4902_29011)"/>
<path d="M50.0001 6.104C49.6477 6.104 49.3639 6.38928 49.3639 6.74366V14.1219C49.3639 14.4763 49.6477 14.7616 50.0001 14.7616C50.3525 14.7616 50.6363 14.4763 50.6363 14.1219V6.74366C50.6363 6.38928 50.3525 6.104 50.0001 6.104ZM45.8383 6.36849C45.7962 6.36393 45.7528 6.36393 45.709 6.36902C45.3584 6.4058 45.1057 6.71915 45.1423 7.07162L45.463 10.1584C45.4995 10.5108 45.8112 10.765 46.1617 10.7282C46.5123 10.6914 46.765 10.378 46.7284 10.0256L46.408 6.93885C46.3759 6.63043 46.1333 6.39729 45.8383 6.36849H45.8383ZM54.191 6.37153C53.896 6.4001 53.6533 6.63323 53.621 6.9416L53.2981 10.0281C53.2612 10.3805 53.514 10.6942 53.8645 10.7312C54.215 10.7683 54.5267 10.5144 54.5636 10.162L54.8864 7.07522C54.9233 6.72278 54.6705 6.4094 54.32 6.37235C54.2762 6.36779 54.2331 6.36779 54.1909 6.37156L54.191 6.37153ZM41.5632 6.99186C41.5208 6.99219 41.4778 6.99641 41.4347 7.00553C41.0899 7.07893 40.8711 7.4172 40.944 7.76389L42.4637 14.982C42.5367 15.3287 42.8731 15.5488 43.2179 15.4754C43.5627 15.402 43.7816 15.064 43.7086 14.7173L42.1889 7.49888C42.125 7.19551 41.8596 6.98914 41.5632 6.99146L41.5632 6.99186ZM58.4659 6.99793C58.1695 6.99489 57.9039 7.20148 57.8399 7.50479L56.315 14.7221C56.2417 15.0687 56.4604 15.4071 56.8051 15.4807C57.1498 15.5544 57.4863 15.3345 57.5595 14.9879L59.0844 7.77063C59.1578 7.42399 58.9391 7.08562 58.5944 7.01199C58.5513 7.00287 58.5082 6.99831 58.4659 6.99831L58.4659 6.99793ZM37.4832 8.14858C37.4008 8.14098 37.3158 8.1501 37.232 8.17806C36.8968 8.28763 36.7145 8.64688 36.8234 8.98391L37.7773 11.9357C37.8862 12.2727 38.2438 12.456 38.579 12.3465C38.9142 12.2369 39.0961 11.8774 38.9872 11.5403L38.0334 8.58859C37.9518 8.33581 37.7303 8.16964 37.4832 8.14852V8.14858ZM62.5228 8.1501C62.2757 8.17123 62.0543 8.33739 61.9725 8.59015L61.0182 11.5416C60.9092 11.8786 61.0913 12.2382 61.4264 12.3477C61.7616 12.4573 62.1192 12.2742 62.2282 11.9372L63.1825 8.98549C63.2915 8.64846 63.1094 8.28892 62.7743 8.17937C62.6905 8.15202 62.6051 8.14305 62.5228 8.15004V8.1501ZM33.4485 9.63315C33.3659 9.63467 33.2822 9.6529 33.2017 9.68892C32.8798 9.83283 32.7357 10.2093 32.8788 10.5331L35.8592 17.2753C36.0023 17.5991 36.3767 17.7439 36.6988 17.6C37.0207 17.4561 37.1651 17.0796 37.0219 16.7558L34.0413 10.0136C33.934 9.77069 33.6965 9.62833 33.4485 9.63316V9.63315ZM66.603 9.65579C66.3551 9.65123 66.1174 9.79271 66.0097 10.0354L63.0203 16.7734C62.8767 17.0971 63.0202 17.4738 63.3421 17.6182C63.6639 17.7626 64.0386 17.6183 64.1822 17.2947L67.1716 10.5566C67.3152 10.233 67.1717 9.85622 66.8498 9.71184C66.7694 9.67582 66.6856 9.65758 66.603 9.65576V9.65579ZM29.7035 11.6256C29.5814 11.6164 29.4556 11.6438 29.3411 11.7104C29.0359 11.8875 28.9321 12.2772 29.1083 12.5841L30.6516 15.2719C30.8278 15.5789 31.2153 15.6832 31.5206 15.506C31.8258 15.3289 31.9296 14.9392 31.7534 14.6323L30.2101 11.9445C30.0999 11.7526 29.9071 11.6399 29.7035 11.6256V11.6256ZM70.2966 11.6256C70.0931 11.6392 69.9005 11.7526 69.7904 11.9444L68.2468 14.6322C68.0706 14.9391 68.1747 15.3288 68.4799 15.506C68.7851 15.6832 69.1727 15.5788 69.3489 15.2719L70.8922 12.5841C71.0684 12.2772 70.9646 11.8875 70.6593 11.7103C70.5449 11.6439 70.4188 11.617 70.2966 11.6255V11.6256ZM26.067 13.9062C25.9446 13.9107 25.822 13.9502 25.715 14.0282C25.4297 14.2363 25.3667 14.6347 25.5737 14.9216L29.8824 20.8938C30.0893 21.1806 30.4858 21.2441 30.7711 21.036C31.0564 20.8279 31.1195 20.4295 30.9124 20.1427L26.6035 14.1704C26.4741 13.9911 26.2709 13.8992 26.067 13.9062V13.9062ZM73.9788 13.9387C73.7748 13.9311 73.5716 14.023 73.442 14.2021L69.1251 20.1685C68.9178 20.4551 68.9803 20.8537 69.2654 21.0621C69.5504 21.2706 69.9468 21.2079 70.1541 20.9214L74.4708 14.955C74.6781 14.6684 74.6154 14.2698 74.3305 14.0613C74.2237 13.9832 74.1012 13.9431 73.9788 13.9387L73.9788 13.9387ZM22.8165 16.6472C22.6541 16.6381 22.4884 16.6926 22.3574 16.8112C22.0955 17.0483 22.0744 17.4511 22.3103 17.7145L24.3755 20.0213C24.6113 20.2847 25.0119 20.3059 25.2739 20.0688C25.5358 19.8317 25.5569 19.4286 25.321 19.1652L23.2561 16.8586C23.1382 16.7269 22.9789 16.6557 22.8165 16.6471V16.6472ZM77.1884 16.6518C77.026 16.6609 76.8667 16.7316 76.7488 16.8632L74.6836 19.1695C74.4477 19.4329 74.4686 19.836 74.7306 20.0731C74.9925 20.3102 75.3931 20.289 75.6289 20.0257L77.6945 17.7194C77.9303 17.456 77.9091 17.0529 77.6473 16.8158C77.5163 16.6973 77.3509 16.6433 77.1885 16.6518L77.1884 16.6518ZM19.7011 19.6562C19.5387 19.6653 19.3797 19.736 19.2618 19.8677C19.026 20.1311 19.047 20.5339 19.3089 20.771L24.7625 25.7074C25.0244 25.9445 25.4251 25.9233 25.6608 25.66C25.8967 25.3966 25.8758 24.9938 25.6138 24.7567L20.16 19.8203C20.029 19.7018 19.8633 19.6477 19.7009 19.6563L19.7011 19.6562ZM80.3189 19.6778C80.1565 19.6687 79.9906 19.7231 79.8596 19.8415L74.4027 24.7741C74.1406 25.011 74.119 25.4138 74.3546 25.6774C74.5902 25.9409 74.9912 25.9623 75.2533 25.7254L80.7104 20.7929C80.9725 20.5559 80.9938 20.1531 80.7582 19.8895C80.6403 19.7578 80.4813 19.6865 80.3189 19.6778H80.3189ZM17.1103 23.0059C16.9064 22.9983 16.703 23.0907 16.5736 23.2698C16.3664 23.5565 16.4292 23.9548 16.7144 24.1631L19.2115 25.9874C19.4967 26.1957 19.8928 26.1328 20.1 25.8461C20.3072 25.5594 20.2445 25.1607 19.9594 24.9524L17.4623 23.1282C17.3555 23.0501 17.2327 23.0102 17.1103 23.0058L17.1103 23.0059ZM82.9072 23.0291C82.7848 23.0337 82.6622 23.073 82.5552 23.1511L80.057 24.9738C79.7717 25.1819 79.7086 25.5806 79.9155 25.8674C80.1225 26.1542 80.5187 26.2174 80.804 26.0093L83.3025 24.1867C83.5878 23.9786 83.6506 23.5802 83.4437 23.2934C83.3143 23.1141 83.1111 23.0221 82.9072 23.0292V23.0291ZM14.6892 26.5788C14.4857 26.5925 14.2931 26.7059 14.183 26.8977C14.0067 27.2046 14.1106 27.5943 14.4158 27.7714L20.7705 31.4606C21.0757 31.6378 21.4632 31.5334 21.6394 31.2265C21.8157 30.9196 21.7118 30.5299 21.4066 30.3527L15.0519 26.6636C14.9375 26.5971 14.8114 26.5703 14.6892 26.5788V26.5788ZM85.311 26.5788C85.1888 26.5697 85.0627 26.5971 84.9483 26.6636L78.5936 30.3528C78.2884 30.5299 78.1845 30.9196 78.3607 31.2265C78.537 31.5334 78.9245 31.6378 79.2297 31.4606L85.5847 27.7715C85.8899 27.5943 85.9937 27.2046 85.8175 26.8977C85.7073 26.7059 85.5145 26.5932 85.311 26.5789V26.5788ZM12.8588 30.3872C12.6108 30.3811 12.3731 30.5238 12.2654 30.7665C12.1218 31.0902 12.2653 31.4669 12.5872 31.6113L15.4064 32.8757C15.7283 33.0201 16.103 32.8758 16.2465 32.5522C16.3901 32.2285 16.2464 31.8517 15.9245 31.7074L13.1056 30.443C13.0252 30.4068 12.9414 30.3889 12.8588 30.3872ZM87.1538 30.4135C87.0711 30.415 86.9872 30.4333 86.9067 30.4693L84.087 31.7315C83.765 31.8757 83.621 32.2522 83.7644 32.576C83.9078 32.8997 84.2825 33.0445 84.6045 32.9003L87.4242 31.6379C87.7462 31.4938 87.8899 31.1171 87.7466 30.7934C87.6391 30.5506 87.4017 30.4085 87.1538 30.4135ZM11.2273 34.3677C10.9802 34.3885 10.7587 34.5544 10.6768 34.8072C10.5677 35.1441 10.7494 35.5038 11.0845 35.6136L18.0614 37.8994C18.3965 38.0091 18.7542 37.8263 18.8634 37.4895C18.9725 37.1525 18.7908 36.7928 18.4557 36.6831L11.4788 34.3972C11.3951 34.3697 11.3097 34.3607 11.2273 34.3677V34.3677ZM88.7822 34.395C88.6998 34.3874 88.6148 34.3965 88.531 34.4245L81.5525 36.7054C81.2173 36.815 81.0353 37.1745 81.1442 37.5115C81.2532 37.8485 81.6108 38.0316 81.946 37.922L88.9242 35.6411C89.2593 35.5316 89.4417 35.172 89.3327 34.835C89.2509 34.5823 89.0293 34.416 88.7822 34.395V34.395ZM10.2109 38.546C9.91453 38.543 9.64874 38.7498 9.58463 39.0532C9.51133 39.3998 9.73002 39.7381 10.0747 39.8118L13.0941 40.457C13.4388 40.5307 13.7753 40.3108 13.8485 39.9642C13.9218 39.6175 13.7031 39.2792 13.3585 39.2055L10.3394 38.5604C10.2963 38.5512 10.2532 38.5467 10.2109 38.5467L10.2109 38.546ZM89.7907 38.5521C89.7484 38.5524 89.7056 38.5582 89.6625 38.5658L86.6432 39.2107C86.2984 39.2844 86.0799 39.6224 86.1531 39.9691C86.2264 40.3157 86.5628 40.5357 86.9076 40.4621L89.9266 39.8172C90.2714 39.7435 90.4902 39.4052 90.417 39.0586C90.3529 38.7552 90.0871 38.5489 89.7907 38.5514L89.7907 38.5521ZM9.44158 42.7489C9.14657 42.7773 8.90374 43.0101 8.87133 43.3185C8.8343 43.6709 9.08643 43.9846 9.43691 44.0219L16.7342 44.7976C17.0847 44.8349 17.3967 44.5811 17.4337 44.2287C17.4708 43.8762 17.2184 43.5625 16.8679 43.5252L9.57064 42.7495C9.52681 42.7449 9.48373 42.7449 9.44157 42.7489L9.44158 42.7489ZM90.5655 42.8041C90.5233 42.7995 90.4799 42.7995 90.4361 42.8046L83.138 43.5704C82.7875 43.6072 82.5348 43.9206 82.5713 44.273C82.6079 44.6255 82.9195 44.8797 83.2701 44.8428L90.5682 44.077C90.9187 44.0402 91.1714 43.7269 91.1349 43.3744C91.1028 43.066 90.8604 42.8329 90.5654 42.8041L90.5655 42.8041ZM9.31803 47.0512C8.96558 47.0512 8.68188 47.3364 8.68188 47.6908C8.68188 48.0452 8.96558 48.3305 9.31803 48.3305H12.4046C12.7571 48.3305 13.0411 48.0452 13.0411 47.6908C13.0411 47.3364 12.7571 47.0512 12.4046 47.0512H9.31803ZM87.5956 47.0512C87.2431 47.0512 86.9594 47.3364 86.9594 47.6908C86.9594 48.0452 87.2431 48.3305 87.5956 48.3305H90.6822C91.0346 48.3305 91.3183 48.0452 91.3183 47.6908C91.3183 47.3364 91.0346 47.0512 90.6822 47.0512H87.5956ZM16.8594 50.5382C16.8172 50.5336 16.7741 50.5336 16.7303 50.5387L9.43194 51.3046C9.0814 51.3413 8.82871 51.6547 8.86526 52.0071C8.90183 52.3596 9.21347 52.6138 9.564 52.577L16.8624 51.8111C17.2129 51.7744 17.4656 51.461 17.429 51.1085C17.397 50.8001 17.1543 50.567 16.8593 50.5382L16.8594 50.5382ZM83.137 50.5835C82.842 50.6119 82.5991 50.8447 82.5667 51.153C82.5297 51.5054 82.7818 51.8192 83.1323 51.8565L90.4296 52.6322C90.7801 52.6694 91.0921 52.4156 91.1292 52.0632C91.1662 51.7108 90.9138 51.397 90.5633 51.3598L83.2663 50.584C83.2225 50.5795 83.1791 50.5795 83.1369 50.5835L83.137 50.5835ZM13.2214 54.9048C13.1791 54.9052 13.1361 54.9094 13.093 54.9185L10.0736 55.5634C9.72889 55.6371 9.51035 55.9754 9.58356 56.322C9.65686 56.6687 9.9933 56.8884 10.3381 56.8148L13.3574 56.1702C13.7021 56.0965 13.9207 55.7582 13.8475 55.4116C13.7834 55.1082 13.5178 54.9019 13.2215 54.9044L13.2214 54.9048ZM86.7779 54.9109C86.4816 54.9079 86.216 55.1144 86.1519 55.4178C86.0786 55.7644 86.297 56.1027 86.6417 56.1764L89.6611 56.8216C90.0058 56.8953 90.3423 56.6757 90.4156 56.3291C90.4889 55.9824 90.2702 55.6438 89.9255 55.5701L86.9064 54.925C86.8633 54.9159 86.8203 54.9113 86.7779 54.9113L86.7779 54.9109ZM18.3057 57.4303C18.2234 57.4227 18.1383 57.4318 18.0545 57.4598L11.0761 59.7407C10.7409 59.8502 10.5588 60.2098 10.6678 60.5468C10.7767 60.8838 11.1343 61.0669 11.4695 60.9573L18.4477 58.6764C18.7829 58.5669 18.9652 58.2073 18.8562 57.8703C18.7745 57.6175 18.5528 57.4513 18.3057 57.4302V57.4303ZM81.6876 57.453C81.4405 57.4738 81.219 57.6398 81.1371 57.8925C81.028 58.2294 81.2096 58.5891 81.5448 58.6989L88.5217 60.9847C88.8568 61.0944 89.2145 60.9116 89.3236 60.5748C89.4329 60.2378 89.2511 59.8782 88.9159 59.7684L81.9391 57.4825C81.8554 57.455 81.77 57.446 81.6876 57.453V57.453ZM15.6428 62.4261C15.5601 62.4276 15.4764 62.4455 15.396 62.4816L12.576 63.744C12.254 63.8881 12.1103 64.2648 12.2536 64.5885C12.397 64.9123 12.7715 65.0568 13.0935 64.9126L15.9135 63.6504C16.2355 63.5064 16.3792 63.1297 16.2358 62.8059C16.1284 62.5631 15.8907 62.4211 15.6428 62.4261V62.4261ZM84.3473 62.4504C84.0993 62.4443 83.8616 62.587 83.7539 62.8297C83.6103 63.1534 83.7538 63.5301 84.0757 63.6745L86.8946 64.9389C87.2165 65.0833 87.5912 64.939 87.7348 64.6153C87.8783 64.2917 87.7349 63.9149 87.413 63.7706L84.5941 62.5062C84.5137 62.47 84.4299 62.4521 84.3473 62.4504V62.4504ZM21.1332 63.8366C21.011 63.8274 20.8849 63.8548 20.7705 63.9214L14.4158 67.6105C14.1106 67.7877 14.0067 68.1773 14.183 68.4842C14.3592 68.7911 14.7467 68.8955 15.0519 68.7183L21.4066 65.0295C21.7118 64.8523 21.8157 64.4624 21.6394 64.1555C21.5293 63.9636 21.3367 63.8509 21.1332 63.8366V63.8366ZM78.8673 63.8366C78.6637 63.8502 78.4709 63.9636 78.3607 64.1554C78.1845 64.4623 78.2884 64.8523 78.5936 65.0294L84.9483 68.7183C85.2535 68.8955 85.6413 68.7911 85.8175 68.4842C85.9937 68.1773 85.8899 67.7876 85.5847 67.6104L79.2297 63.9213C79.1153 63.8549 78.9894 63.828 78.8673 63.8365V63.8366ZM19.5481 69.2503C19.4257 69.2548 19.3031 69.2945 19.1961 69.3726L16.6979 71.1952C16.4127 71.4033 16.3496 71.8018 16.5565 72.0886C16.7634 72.3754 17.1597 72.4389 17.4449 72.2307L19.9434 70.4081C20.2287 70.2 20.2918 69.8016 20.0849 69.5147C19.9555 69.3354 19.7521 69.2432 19.5481 69.2502L19.5481 69.2503ZM80.437 69.2719C80.233 69.2643 80.0297 69.3567 79.9002 69.5358C79.693 69.8225 79.7559 70.2211 80.0411 70.4294L82.5382 72.2537C82.8233 72.462 83.2195 72.3988 83.4267 72.1121C83.6338 71.8254 83.5712 71.427 83.2861 71.2187L80.789 69.3944C80.6821 69.3163 80.5594 69.2762 80.437 69.2718L80.437 69.2719ZM25.2062 69.4927C25.0439 69.4836 24.8783 69.538 24.7472 69.6564L19.29 74.589C19.028 74.8259 19.0067 75.2287 19.2423 75.4923C19.4779 75.7558 19.8785 75.7772 20.1406 75.5403L25.5978 70.6078C25.8599 70.3709 25.8812 69.968 25.6456 69.7045C25.5278 69.5727 25.3686 69.5014 25.2062 69.4927ZM74.7788 69.5103C74.6164 69.5195 74.4572 69.5901 74.3393 69.7218C74.1035 69.9852 74.1246 70.388 74.3864 70.6251L79.84 75.5615C80.102 75.7986 80.5029 75.7774 80.7387 75.5141C80.9745 75.2507 80.9534 74.8479 80.6915 74.6108L75.2376 69.6744C75.1066 69.5559 74.9412 69.5018 74.7788 69.5104V69.5103ZM30.3834 74.1964C30.1794 74.1888 29.9759 74.2806 29.8463 74.4597L25.5297 80.4262C25.3223 80.7127 25.3848 81.1113 25.6696 81.3198C25.9546 81.5283 26.3511 81.4655 26.5584 81.1789L30.875 75.2125C31.0823 74.9259 31.02 74.5273 30.7351 74.3188C30.6282 74.2407 30.5057 74.2006 30.3834 74.1964ZM69.5814 74.2231C69.459 74.2277 69.3364 74.267 69.2294 74.3451C68.9442 74.5532 68.8811 74.9517 69.088 75.2385L73.3966 81.2107C73.6036 81.4976 73.9998 81.561 74.2851 81.353C74.5704 81.1449 74.6335 80.7465 74.4266 80.4596L70.1179 74.4874C69.9885 74.3081 69.7854 74.2162 69.5814 74.2232L69.5814 74.2231ZM24.8109 75.1446C24.6485 75.1538 24.4892 75.2244 24.3713 75.3561L22.3061 77.6624C22.0702 77.9258 22.0911 78.3288 22.3531 78.566C22.615 78.8031 23.0156 78.7818 23.2514 78.5184L25.3169 76.2121C25.5528 75.9488 25.5316 75.5457 25.2698 75.3085C25.1387 75.19 24.9734 75.136 24.811 75.1446L24.8109 75.1446ZM75.1855 75.1477C75.0231 75.1386 74.8576 75.1931 74.7267 75.3117C74.4647 75.5487 74.4437 75.9516 74.6794 76.215L76.7443 78.5218C76.9801 78.7852 77.3808 78.8064 77.6427 78.5692C77.9047 78.3321 77.9257 77.929 77.6899 77.6656L75.6249 75.3591C75.507 75.2273 75.3477 75.1562 75.1853 75.1476L75.1855 75.1477ZM36.4113 77.7063C36.1634 77.7002 35.926 77.8429 35.8183 78.0856L32.8286 84.8237C32.685 85.1473 32.8285 85.5241 33.1504 85.6684C33.4722 85.8128 33.8469 85.6685 33.9905 85.3449L36.9802 78.6068C37.1238 78.2832 36.9803 77.9064 36.6584 77.7621C36.578 77.7259 36.494 77.708 36.4113 77.7063ZM63.5485 77.7248C63.4659 77.7263 63.3819 77.7443 63.3014 77.7803C62.9795 77.9242 62.8354 78.3007 62.9785 78.6245L65.9589 85.3667C66.102 85.6904 66.4767 85.8353 66.7988 85.6914C67.1206 85.5475 67.2648 85.171 67.1216 84.8472L64.1413 78.1049C64.034 77.8622 63.7964 77.72 63.5485 77.7248V77.7248ZM31.1579 79.7896C30.9543 79.8032 30.7617 79.9166 30.6516 80.1084L29.1083 82.7962C28.9321 83.1031 29.0359 83.4928 29.3411 83.67C29.6463 83.8472 30.0339 83.7428 30.2101 83.4359L31.7534 80.7481C31.9296 80.4412 31.8258 80.0515 31.5206 79.8743C31.4062 79.8079 31.28 79.781 31.1579 79.7895V79.7896ZM68.8423 79.7896C68.7202 79.7804 68.5943 79.8079 68.4799 79.8743C68.1747 80.0515 68.0708 80.4412 68.2471 80.7481L69.7904 83.4359C69.9666 83.7428 70.3541 83.8472 70.6593 83.67C70.9646 83.4929 71.0684 83.1032 70.8922 82.7963L69.3489 80.1085C69.2387 79.9166 69.0459 79.8039 68.8423 79.7896V79.7896ZM43.0669 79.8859C42.7706 79.8829 42.505 80.0894 42.4409 80.3928L40.916 87.6101C40.8427 87.9567 41.0614 88.2951 41.4061 88.3687C41.7509 88.4424 42.0874 88.2225 42.1606 87.8759L43.6855 80.6586C43.7588 80.312 43.5401 79.9736 43.1954 79.9C43.1523 79.8909 43.1093 79.8863 43.0669 79.8863L43.0669 79.8859ZM56.9108 79.8905C56.8684 79.8908 56.8257 79.895 56.7826 79.9041C56.4378 79.9775 56.219 80.3155 56.2919 80.6622L57.8116 87.8806C57.8846 88.2273 58.221 88.4474 58.5659 88.374C58.9107 88.3006 59.1295 87.9623 59.0565 87.6156L57.5365 80.3977C57.4726 80.0944 57.2072 79.888 56.9108 79.8903L56.9108 79.8905ZM50.0001 80.6185C49.6477 80.6185 49.3639 80.9037 49.3639 81.2581V88.6364C49.3639 88.9908 49.6477 89.276 50.0001 89.276C50.3525 89.276 50.6363 88.9908 50.6363 88.6364V81.2581C50.6363 80.9037 50.3525 80.6185 50.0001 80.6185ZM38.3225 83.0026C38.0755 83.0237 37.8537 83.1899 37.772 83.4427L36.8179 86.3944C36.709 86.7314 36.8911 87.091 37.2262 87.2005C37.5614 87.3101 37.919 87.1267 38.0279 86.7897L38.982 83.8383C39.091 83.5013 38.9089 83.1417 38.5737 83.0322C38.49 83.0048 38.4049 82.9957 38.3225 83.0027V83.0026ZM61.6727 83.0041C61.5904 82.9965 61.5053 83.0056 61.4215 83.0335C61.0863 83.143 60.9041 83.5025 61.013 83.8396L61.9668 86.7913C62.0758 87.1284 62.4333 87.3114 62.7685 87.2018C63.1037 87.0923 63.286 86.733 63.177 86.396L62.223 83.4443C62.1412 83.1915 61.9198 83.0253 61.6727 83.0042V83.0041ZM46.0069 84.6481C45.7119 84.6767 45.4689 84.9095 45.4366 85.2179L45.114 88.3047C45.0771 88.6571 45.3297 88.9705 45.6802 89.0075C46.0307 89.0446 46.3426 88.7907 46.3795 88.4383L46.7021 85.3518C46.739 84.9994 46.4864 84.6857 46.136 84.6487C46.0921 84.6441 46.0491 84.6441 46.0069 84.6481L46.0069 84.6481ZM53.9677 84.6512C53.9256 84.6466 53.8822 84.6466 53.8384 84.6517C53.4879 84.6885 53.2351 85.0018 53.2717 85.3543L53.5924 88.4413C53.629 88.7938 53.9406 89.0476 54.2911 89.0108C54.6417 88.9741 54.8944 88.6607 54.8578 88.3082L54.5374 85.2215C54.5054 84.9131 54.2627 84.6799 53.9677 84.6511L53.9677 84.6512Z" fill="#F4F2F3"/>
<g opacity="0.409" filter="url(#filter1_f_4902_29011)">
<path d="M79.8156 22.1035L45.0103 42.4368L23.0039 77.2717L55.1975 53.2951L79.8156 22.1035Z" fill="black"/>
</g>
<path d="M54.9881 52.9424L45.0117 42.4373L80.4017 18.4995L54.9881 52.9424Z" fill="#FF5150"/>
<path d="M54.9881 52.9426L45.0118 42.4375L19.5981 76.8804L54.9881 52.9426Z" fill="#F1F1F1"/>
<path opacity="0.243" d="M19.5981 76.8802L54.9881 52.9424L80.4017 18.4995L19.5981 76.8802Z" fill="black"/>
</g>
<defs>
<filter id="filter0_f_4902_29011" x="-4.55826" y="-1.52335" width="109.121" height="106.224" filterUnits="userSpaceOnUse" color-interpolation-filters="sRGB">
<feFlood flood-opacity="0" result="BackgroundImageFix"/>
<feBlend mode="normal" in="SourceGraphic" in2="BackgroundImageFix" result="shape"/>
<feGaussianBlur stdDeviation="4.47676" result="effect1_foregroundBlur_4902_29011"/>
</filter>
<filter id="filter1_f_4902_29011" x="20.4591" y="19.5587" width="61.9014" height="60.2576" filterUnits="userSpaceOnUse" color-interpolation-filters="sRGB">
<feFlood flood-opacity="0" result="BackgroundImageFix"/>
<feBlend mode="normal" in="SourceGraphic" in2="BackgroundImageFix" result="shape"/>
<feGaussianBlur stdDeviation="1.27242" result="effect1_foregroundBlur_4902_29011"/>
</filter>
<linearGradient id="paint0_linear_4902_29011" x1="49.9982" y1="95.2928" x2="49.9982" y2="0.0856878" gradientUnits="userSpaceOnUse">
<stop stop-color="#BDBDBD"/>
<stop offset="1" stop-color="white"/>
</linearGradient>
<radialGradient id="paint1_radial_4902_29011" cx="0" cy="0" r="1" gradientUnits="userSpaceOnUse" gradientTransform="translate(50.1968 41.2923) scale(47.3433 47.6037)">
<stop stop-color="#06C2E7"/>
<stop offset="0.25" stop-color="#0DB8EC"/>
<stop offset="0.5" stop-color="#12AEF1"/>
<stop offset="0.75" stop-color="#1F86F9"/>
<stop offset="1" stop-color="#107DDD"/>
</radialGradient>
<clipPath id="clip0_4902_29011">
<rect width="100" height="100" fill="white"/>
</clipPath>
</defs>
</svg>
