<svg width="20" height="20" viewBox="0 0 20 20" fill="none" xmlns="http://www.w3.org/2000/svg">
<path d="M14.0473 4.06953C13.0874 3.10846 11.8706 2.44489 10.5429 2.15855C9.21523 1.8722 7.83315 1.97525 6.56258 2.45527C5.29201 2.93529 4.18695 3.7719 3.38007 4.86467C2.5732 5.95744 2.09879 7.2599 2.01382 8.61572C1.92885 9.97154 2.23695 11.3231 2.90107 12.5081C3.5652 13.6931 4.55716 14.6612 5.75786 15.2961C6.95855 15.9311 8.31696 16.2059 9.66999 16.0877C11.023 15.9694 12.3132 15.463 13.3855 14.6293L16.7534 18L18 16.7511L14.6321 13.3805C15.6832 12.0228 16.2036 10.3285 16.096 8.61468C15.9883 6.90088 15.26 5.28502 14.0473 4.06953ZM12.7987 12.8065C12.0585 13.5465 11.1155 14.0504 10.0889 14.2544C9.06243 14.4584 7.99849 14.3534 7.03164 13.9527C6.06478 13.5519 5.23844 12.8735 4.65705 12.003C4.07567 11.1326 3.76535 10.1093 3.76535 9.06245C3.76535 8.01564 4.07567 6.99235 4.65705 6.12192C5.23844 5.25149 6.06478 4.57304 7.03164 4.1723C7.99849 3.77157 9.06243 3.66658 10.0889 3.87058C11.1155 4.07458 12.0585 4.57842 12.7987 5.31842C13.7904 6.31199 14.3474 7.65851 14.3474 9.06245C14.3474 10.4664 13.7904 11.813 12.7987 12.8065Z" fill="#9098A0"/>
</svg>
