<svg width="24" height="24" viewBox="0 0 24 24" fill="none" xmlns="http://www.w3.org/2000/svg">
  <g clip-path="url(#clip0_1415_86566)">
    <path fill-rule="evenodd" clip-rule="evenodd"
      d="M12 22.5C17.799 22.5 22.5 17.799 22.5 12C22.5 6.20101 17.799 1.5 12 1.5C6.20101 1.5 1.5 6.20101 1.5 12C1.5 17.799 6.20101 22.5 12 22.5ZM8.90697 17.3052V12.6078H8.00065C7.81753 12.6078 7.66907 12.4593 7.66907 12.2762V11.5578C7.66907 11.3747 7.81753 11.2262 8.00065 11.2262H8.90697V6.69905C8.90697 6.51592 9.05542 6.36747 9.23855 6.36747H10.4057C10.5888 6.36747 10.7373 6.51592 10.7373 6.69905V11.1209C10.7373 11.1791 10.7844 11.2262 10.8426 11.2262C10.876 11.2262 10.9075 11.2103 10.9274 11.1833L14.3708 6.50256C14.4333 6.41762 14.5325 6.36747 14.6379 6.36747H15.8607C16.1347 6.36747 16.2904 6.68097 16.1249 6.89934L12.8453 11.2262H15.3573C15.5404 11.2262 15.6889 11.3747 15.6889 11.5578V12.2762C15.6889 12.4593 15.5404 12.6078 15.3573 12.6078H13.3082L16.2947 17.1222C16.4405 17.3426 16.2824 17.6367 16.0181 17.6367H14.7103C14.5962 17.6367 14.4901 17.5781 14.4294 17.4814L11.4144 12.678L10.8259 13.3118C10.7689 13.3731 10.7373 13.4537 10.7373 13.5374V17.3052C10.7373 17.4883 10.5888 17.6367 10.4057 17.6367H9.23855C9.05542 17.6367 8.90697 17.4883 8.90697 17.3052Z"
      fill="current" />
  </g>
  <defs>
    <clipPath id="clip0_1415_86566">
      <rect width="24" height="24" fill="white" />
    </clipPath>
  </defs>
</svg>