<svg width="16" height="16" viewBox="0 0 16 16" fill="none" xmlns="http://www.w3.org/2000/svg">
<path d="M7.9925 0.500034C6.50946 0.501517 5.06015 0.942645 3.82777 1.76766C2.59539 2.59267 1.63526 3.76452 1.06876 5.1351C0.502249 6.50568 0.354794 8.01344 0.645029 9.4678C0.935265 10.9222 1.65016 12.2578 2.69935 13.306C3.74854 14.3541 5.08493 15.0677 6.53958 15.3565C7.99423 15.6452 9.50185 15.4963 10.8719 14.9284C12.2419 14.3605 13.4128 13.3992 14.2365 12.166C15.0603 10.9328 15.5 9.48307 15.5 8.00003C15.5 7.01449 15.3058 6.0386 14.9284 5.12817C14.551 4.21774 13.9979 3.39062 13.3007 2.69408C12.6034 1.99754 11.7757 1.44525 10.8649 1.06878C9.95412 0.692315 8.97805 0.499049 7.9925 0.500034ZM13.19 5.00003H10.9775C10.744 4.07129 10.3976 3.17463 9.94625 2.33003C11.3129 2.80181 12.4643 3.74952 13.19 5.00003ZM8 2.03003C8.63001 2.93895 9.11339 3.94116 9.4325 5.00003H6.5675C6.88661 3.94116 7.37 2.93895 8 2.03003ZM2.195 9.50003C2.06885 9.0099 2.00336 8.50613 2 8.00003C2.00336 7.49394 2.06885 6.99017 2.195 6.50003H4.72625C4.66216 6.99752 4.62835 7.49844 4.625 8.00003C4.62959 8.5017 4.66466 9.00262 4.73 9.50003H2.195ZM2.81 11H5.0225C5.25603 11.9288 5.60236 12.8254 6.05375 13.67C4.6856 13.2009 3.53342 12.2525 2.81 11ZM5.0225 5.00003H2.81C3.53434 3.74688 4.68795 2.79841 6.0575 2.33003C5.60481 3.17445 5.25723 4.07112 5.0225 5.00003ZM8 13.97C7.37 13.0611 6.88661 12.0589 6.5675 11H9.4325C9.11339 12.0589 8.63001 13.0611 8 13.97ZM9.755 9.50003H6.245C6.17092 9.00335 6.13082 8.50218 6.125 8.00003C6.13052 7.49787 6.17062 6.99669 6.245 6.50003H9.755C9.82939 6.99669 9.86948 7.49787 9.875 8.00003C9.86918 8.50218 9.82909 9.00335 9.755 9.50003ZM9.9425 13.67C10.3939 12.8254 10.7402 11.9288 10.9738 11H13.1862C12.4596 12.2512 11.3068 13.199 9.93875 13.67H9.9425ZM11.27 9.50003C11.3353 9.00262 11.3704 8.5017 11.375 8.00003C11.3704 7.49837 11.3353 6.99744 11.27 6.50003H13.8012C13.9287 6.99001 13.9954 7.49378 14 8.00003C13.9966 8.50613 13.9312 9.0099 13.805 9.50003H11.27Z" fill="#191F28"/>
</svg>
