<svg width="24" height="24" viewBox="0 0 24 24" fill="none" xmlns="http://www.w3.org/2000/svg">
<path d="M19.1134 4.87353H15.018V4.40011C15.018 3.62451 14.3941 3 13.6193 3H10.3792C9.60434 3 8.98047 3.62451 8.98047 4.40011V4.87353H4.88503C4.37184 4.87353 3.94922 5.29659 3.94922 5.8103C3.94922 6.32401 4.37184 6.74706 4.88503 6.74706H5.96172V18.0487C5.96172 19.6805 7.27991 21 8.91003 21H15.0884C16.7185 21 18.0367 19.6805 18.0367 18.0487V6.75713H19.1134C19.6266 6.75713 20.0492 6.33408 20.0492 5.82037C20.0492 5.30666 19.6266 4.8836 19.1134 4.8836V4.87353ZM16.2255 18.0386C16.2255 18.6631 15.7123 19.1768 15.0884 19.1768H8.91003C8.28616 19.1768 7.77297 18.6631 7.77297 18.0386V6.75713H16.2255V18.0487V18.0386ZM13.8105 16.9205C13.3073 16.9205 12.9048 16.5176 12.9048 16.014V9.76889C12.9048 9.26525 13.3073 8.86234 13.8105 8.86234C14.3136 8.86234 14.7161 9.26525 14.7161 9.76889V16.014C14.7161 16.5176 14.3136 16.9205 13.8105 16.9205ZM10.188 16.9205C9.68484 16.9205 9.28234 16.5176 9.28234 16.014V9.76889C9.28234 9.26525 9.68484 8.86234 10.188 8.86234C10.6911 8.86234 11.0936 9.26525 11.0936 9.76889V16.014C11.0936 16.5176 10.6911 16.9205 10.188 16.9205Z" fill="#87929A"/>
</svg>
