<svg width="16" height="16" viewBox="0 0 16 16" fill="none" xmlns="http://www.w3.org/2000/svg">
<path d="M11.5227 3.99059H13.6364L15.75 6.84823V12.0048H14.3163C14.2325 12.5926 13.9395 13.1304 13.491 13.5195C13.0425 13.9086 12.4687 14.1228 11.875 14.1228C11.2813 14.1228 10.7075 13.9086 10.259 13.5195C9.81053 13.1304 9.51751 12.5926 9.43375 12.0048H5.8617C5.77795 12.5926 5.48492 13.1304 5.03646 13.5195C4.58799 13.9086 4.01419 14.1228 3.42045 14.1228C2.82672 14.1228 2.25292 13.9086 1.80445 13.5195C1.35598 13.1304 1.06296 12.5926 0.979205 12.0048H0.25V2.5815C0.25 2.39464 0.324229 2.21544 0.456357 2.08331C0.588484 1.95118 0.767688 1.87695 0.954545 1.87695H10.8182C11.005 1.87695 11.1842 1.95118 11.3164 2.08331C11.4485 2.21544 11.5227 2.39464 11.5227 2.5815V3.99059ZM11.5227 5.39968V7.51332H14.3409V7.31252L12.9262 5.39968H11.5227Z" fill="#D3D6D9"/>
</svg>
