<svg
  width="20"
  height="19"
  viewBox="0 0 20 19"
  fill="none"
  xmlns="http://www.w3.org/2000/svg"
>
  <path
    d="M12.1706 1.25822L19.659 14.2352C20.6259 15.9128 19.4222 18.0049 17.4884 18.0049H2.51158C0.577811 18.0049 -0.625861 15.9128 0.341024 14.2352L7.82944 1.25822C8.79633 -0.419408 11.2135 -0.419408 12.1804 1.25822H12.1706ZM9.99013 14.7977C10.1579 14.7977 10.3256 14.7582 10.4736 14.6694C10.6216 14.5806 10.74 14.4622 10.8288 14.3141C10.9176 14.1661 10.957 14.0082 10.9669 13.8306C10.9669 13.653 10.9176 13.4951 10.8288 13.347C10.74 13.199 10.6216 13.0806 10.4736 12.9918C10.3256 12.903 10.1677 12.8635 9.99013 12.8635C9.81254 12.8635 9.65468 12.903 9.50669 12.9918C9.3587 13.0806 9.2403 13.199 9.15151 13.347C9.06271 13.4951 9.02325 13.653 9.02325 13.8306C9.02325 14.0082 9.06271 14.1661 9.15151 14.3141C9.2403 14.4622 9.3587 14.5806 9.50669 14.6694C9.65468 14.7582 9.82241 14.7977 9.99013 14.7977ZM10.888 6.32072H9.10218L9.26004 12.1924H10.74L10.8978 6.32072H10.888Z"
    fill="current"
  />
</svg>
