<svg width="20" height="20" viewBox="0 0 20 20" fill="none" xmlns="http://www.w3.org/2000/svg">
<g clip-path="url(#clip0_1449_38469)">
<path fill-rule="evenodd" clip-rule="evenodd" d="M13.4451 12.3006C13.521 12.3769 13.5812 12.4675 13.6222 12.5672C13.6631 12.6668 13.6841 12.7735 13.6838 12.8812C13.6835 12.9889 13.662 13.0955 13.6205 13.1949C13.579 13.2943 13.5184 13.3846 13.442 13.4606C13.3656 13.5365 13.275 13.5967 13.1754 13.6377C13.0758 13.6786 12.9691 13.6996 12.8613 13.6993C12.7536 13.699 12.647 13.6775 12.5476 13.636C12.4482 13.5945 12.358 13.5338 12.282 13.4575L9.99683 11.1601L7.69944 13.4453C7.62323 13.5215 7.53269 13.5819 7.43304 13.6231C7.3334 13.6642 7.2266 13.6852 7.1188 13.6849C7.011 13.6846 6.90431 13.663 6.80489 13.6214C6.70546 13.5797 6.61525 13.5188 6.53945 13.4422C6.4634 13.3658 6.40315 13.2753 6.36214 13.1756C6.32113 13.076 6.30017 12.9693 6.30046 12.8615C6.30075 12.7538 6.32228 12.6472 6.36382 12.5477C6.40535 12.4483 6.46609 12.3581 6.54254 12.2822L8.83993 9.997L6.55477 7.69961C6.4788 7.62324 6.41863 7.53266 6.37767 7.43304C6.33671 7.33341 6.31578 7.22669 6.31607 7.11898C6.31636 7.01126 6.33786 6.90466 6.37934 6.80525C6.42083 6.70585 6.48149 6.61558 6.55786 6.53962C6.63423 6.46366 6.72481 6.40348 6.82444 6.36253C6.92407 6.32157 7.03078 6.30064 7.1385 6.30093C7.24621 6.30121 7.35282 6.32271 7.45222 6.3642C7.55163 6.40569 7.64189 6.46635 7.71785 6.54272L10.003 8.8401L12.3004 6.55494C12.3768 6.47898 12.4674 6.4188 12.567 6.37785C12.6666 6.33689 12.7733 6.31596 12.881 6.31625C12.9888 6.31653 13.0954 6.33803 13.1948 6.37952C13.2942 6.42101 13.3844 6.48167 13.4604 6.55804C13.5364 6.63441 13.5965 6.72499 13.6375 6.82461C13.6784 6.92424 13.6994 7.03096 13.6991 7.13867C13.6988 7.24639 13.6773 7.35299 13.6358 7.4524C13.5943 7.5518 13.5337 7.64207 13.4573 7.71803L11.1599 10.0032L13.4451 12.3006ZM10.024 0.976101C5.04029 0.962805 0.989221 4.99232 0.975925 9.97602C0.96263 14.9597 4.99214 19.0108 9.97585 19.0241C14.9596 19.0374 19.0106 15.0079 19.0239 10.0242C19.0372 5.04046 15.0077 0.989397 10.024 0.976101Z" fill="#87929A"/>
</g>
<defs>
<clipPath id="clip0_1449_38469">
<rect width="20" height="20" fill="white"/>
</clipPath>
</defs>
</svg>
